<?xml version="1.0" encoding="utf-8"?>
<!-- Generator: Adobe Illustrator 23.0.3, SVG Export Plug-In . SVG Version: 6.00 Build 0)  -->
<svg version="1.1" id="Слой_1" xmlns="http://www.w3.org/2000/svg" xmlns:xlink="http://www.w3.org/1999/xlink" x="0px" y="0px"
	 viewBox="0 0 612 792" style="enable-background:new 0 0 612 792;" xml:space="preserve">
<style type="text/css">
	.st0{fill:#378AA8;}
	.st1{fill:#FEF0B9;}
	.st2{fill:#312F55;}
	.st3{fill:#3D477C;}
	.st4{fill:#3D477B;}
	.st5{fill:#323056;}
	.st6{fill:#323055;}
	.st7{fill:#3E477C;}
	.st8{fill:#333156;}
	.st9{fill:#333157;}
	.st10{fill:#FEFEFE;}
	.st11{fill:#3F497D;}
</style>
<g>
	<path class="st0" d="M578,517.4c-9.5,12.3-21.9,17.6-36.8,19.5c-14.7,1.9-28.4-0.3-41.7-5.8c-15.3-6.3-25.2-17-27.8-34.5
		c-1.8-12.3-1.1-24.2,3.9-34.9c3.9-8.3,11.3-15.1,20.2-19.1c22.1-10,45.5-12.1,69.4-11.1c5.8,0.2,10.3,1.2,8.2-8.1
		c-1.9-8.5-1.1-17.6-4.3-26.2c-6.7-18.4-24.1-25.9-42.5-18.7c-10,3.9-15,10.9-17.7,20.5c-2.9,10.3-2.9,10.3-13.8,10.3
		c-13,0-13.8-0.1-11.8-13c1.2-7.9,1.2-16,7-23.5c6.2-8,14.2-10.9,22.8-13.3c15.7-4.4,31.8-2.9,47.8-2.8
		c25.8,0.2,53.1,21.4,59.3,46.6c2.2,9,4.1,18.2,4,27.7c-0.2,32.1-0.2,64.1,0.1,96.2c0.1,5.7-1.7,7.2-7,6.7c-3.9-0.4-8-0.7-11.7,0
		c-13,2.6-20.2-4.7-26-14.6C579.4,518.8,578.9,518.3,578,517.4z"/>
	<path class="st0" d="M726.3,356.8c17.8-1,34,2.1,49.6,9.3c9.6,4.5,14.8,11.7,16,22.2c0.9,8,1.4,15.9,1.5,23.9c0,4.2-1,6-5.4,5.4
		c-2-0.3-4.2-0.3-6.2,0c-3.5,0.6-4.4-1.2-5.1-4.1c-4.4-18.9-13.9-33.2-34.5-36.7c-11-1.9-21.9-2-31.6,4.7
		c-10.1,6.9-9.7,25.6-1.6,32.1c10.3,8.3,22.3,12.7,34.1,17.6c15.1,6.3,30.3,12.6,42.7,23.1c8.1,6.8,14.7,15.9,14.4,27.7
		c0,0.7-0.1,1.4,0,2.1c2.2,20.6-8.5,33.3-25.2,43c-10.3,6-21.6,7.6-32.9,9.4c-18.2,3-36.6,1.2-54.1-3.1
		c-21.8-5.3-31.7-13.6-31.8-38.8c0-3.9-0.3-7.9,0.1-11.8c0.3-2.5-2.3-7.2,2.6-6.9c4.2,0.2,9.5-3.4,13,3.7c2.3,4.7,3.7,9.9,5.6,14.6
		c5.1,12.6,14.6,18,26.5,21.9c13.2,4.4,25.4,2.4,37.6-3c11.8-5.3,14-22.1,5.2-30.7c-8.1-7.9-18.5-12.1-28.7-16.3
		c-16.9-7.1-34-14-47.8-26c-8.9-7.8-16.1-17.2-15.6-30.7c0.4-10.7,0.2-21,8.1-29.6c9.5-10.4,20.8-17.2,34.5-20.5
		C707.1,357,717,356.1,726.3,356.8z"/>
	<path class="st0" d="M393.6,475.5c4.9-12.7,9.1-23.4,13.2-34.3c4.2-11.2,8.6-22.3,12.5-33.5c4-11.8,9.6-22.9,12.8-35
		c3.1-11.8,11-16.2,23.1-13.1c2.7,0.7,5.4,1.4,3.1,6.1c-4,8-6.8,16.7-9.9,25.1c-5.4,14.4-10.5,28.9-16,43.3
		c-4.2,11.1-9.1,22-12.9,33.2c-3.9,11.3-8.6,22.4-12.7,33.6c-6.5,17.6-12.5,35.4-19.5,52.8c-5.2,12.7-10,25.9-19.4,36.5
		c-4.5,5.1-10.1,8.7-16.1,11.2c-11.2,4.7-23,7.3-35.4,6c-3.7-0.4-5.7-0.9-5.1-5c0.2-1.6,0.3-3.3,0-4.8c-1-5.9,1.7-6.8,7.2-7.1
		c18.1-1.2,33.4-7.8,41.2-25.8c2.3-5.3,4.1-10.9,7.1-15.8c6.2-10.2,1.5-19.4-3.2-27.5c-5.5-9.4-8.8-19.5-13.8-29.1
		c-5.2-10-9.7-20.5-14.2-30.8c-4.7-10.8-9.8-21.5-14.5-32.2c-6.1-13.8-11.4-28-19-41c-4.5-7.7-10.4-15.7-20.2-18.6
		c-2.6-0.7-5.3-1.3-7.7-2.5c-2.4-1.2-3.9-3.6-2.9-6.3c0.6-1.7,0.9-4.3,3.8-4.1c15.9,1.2,32.1-2.8,47.8,2.7
		c18.1,6.3,28.8,19.5,35.6,36.8c4.5,11.3,10,22.1,15.1,33.2c4.4,9.5,9.2,18.9,13.1,28.7C388.9,463.3,392.6,467.9,393.6,475.5z"/>
	<path class="st0" d="M-126.2,236.4c13.1-0.1,26.6-1.9,39.3,0.2c23.3,3.8,45.6,11.2,64.5,26.4c17.8,14.3,30.4,32.2,39.9,52.7
		c2,4.3,4.8,8.3,5.7,13.1c-1,1.1-2.4,1.4-3.8,1.2c-2.9-0.7-5.9-1.1-8.7,0.4c-4.4,1.7-6.9,5-8.2,9.5c-1.5,5.2-4.5,9.1-10.2,10.1
		c-4.5,0.8-6.5,3.7-7.7,7.8c-2.6,8.2-3.5,9-12.3,8.8c-6.8-0.1-13.4,0-17.8,6.5c-1.6,2-2,4.2-0.5,6.4c2.7,4.1,6.9,5.8,11.5,6.5
		c2.2,0.7,4.6,0.5,6.8,0.9c4.5,0.9,6.7,4.1,7.5,8.1c1.4,7,5.7,9.5,12.4,9.2c3.8-0.1,7.3,0.5,9.6,4.2c4.4,6.9,0.3,14.4-8.5,14.9
		c-5.3,0.3-10.8-0.3-14,5.3c-1.6,2.5-2,5-0.3,7.5c2.8,3.4,6.8,4.6,10.9,5.3c4.8,1,9.7,0.3,14.5,0.4c6.9,0.1,13.7-0.1,20.6,0.1
		c5.5,0.6,9.3,3.3,9.2,9.1c0,5.8-4.5,7.7-9.3,8.3c-6.2,0.9-10,3.8-11.6,10c-1.1,4.2-3.1,8.3-8.2,9.2c-4.2,0.5-8.6-0.3-12.7,1.2
		c-3.2,0.5-6.4,0.9-9.4-1c-1.6-1.9-0.9-4-0.5-5.9c1-4.9-0.7-7.8-5.9-7.8c-7.1-0.1-11.2-3.9-12.8-10.4c-1.2-4.9-3.8-7.4-8.9-8
		c-6.3-0.8-9.6-5.2-10.8-11.1c-1-5.1-3.9-6.7-8.8-6.6c-7.1,0.2-14.3,0.3-21.4-0.1c-10.3-0.6-15.9-6.5-15.8-16.2
		c0.1-9.8,4.3-14.2,15.1-15c8-0.6,16.1,0,24.2-0.2c2.8-0.1,7.2,1.2,7.5-2.7c0.3-4.1-4.4-4.1-7.3-4.3c-7.1-0.5-14.3,0-21.4-0.2
		c-7.6-0.2-11.4-3.2-12.3-9.4c-1.6-10.9,0.6-16.6,8.1-18.9c5.1-1.6,8.4-3.9,9.2-9.6c0.8-5.6,5.3-7.5,10.4-8.5
		c8.9-1.8,17.9-1.7,26.9-1.5c6,0.2,9.4-1.8,10.6-8.1c1.4-7,4.7-9,13-9.9c2.9-0.3,7.8,0.9,7.3-3.8c-0.3-3.7-4.9-3.3-8.1-3.5
		c-2.8-0.1-5.5,0-8.3-0.1c-5.8-0.2-9.4-3.1-11-8.7c-2.5-8.3-3.7-9.1-12.1-9.3c-1.6,0-3.2,0-4.8-0.1c-8.4-0.6-13.1-4.9-13.6-12.7
		c-0.7-11.5,2.1-15.6,11.9-17.3c0.9-0.2-0.2,0.2,0.7-0.1c2.4-0.9,6.4-0.4,5.9-4.2c-0.4-3-3.7-2.9-6.3-2.9c-7.1-0.1-14.3,0-21.4,0
		c-12.5,0-24.9,0.4-37.4-0.2c-12.1-0.5-17.4-7.2-15.5-18.5C-130.1,240.1-129.1,237.6-126.2,236.4z"/>
	<path class="st0" d="M153.6,396.8c0,32.5-0.2,65,0.1,97.6c0.1,8.8,1.6,17.7,10.3,22.9c4.3,2.5,9.2,1.6,13.8,2.6
		c5.3,1.2,4.5,4.7,4.9,8.2c0.4,3.9-1.7,5.7-5.1,5.7c-16.4,0.2-32.8,0.7-49.1-0.1c-12.6-0.6-19.3-8.8-23.8-20.7
		c-2.6-7-2.3-13.6-2.3-20.4c-0.2-64.6,0-129.2-0.3-193.7c0-6.3,1.7-7.7,7.6-7.5c12.4,0.5,24.9,0.4,37.4,0c5.1-0.2,6.6,1.1,6.5,6.4
		C153.4,330.8,153.6,363.8,153.6,396.8z"/>
	<path class="st0" d="M257.4,427.1c0,33-0.1,66,0.1,99c0,6-1.6,8.1-7.8,7.9c-12-0.4-24-0.5-36,0c-5.5,0.2-6.3-1.7-6.3-6.6
		c0.2-61.8,0.3-123.7-0.1-185.5c0-8.9-1.3-17.9-4.4-26.7c-2.8-8-9.2-8.7-15.5-9.6c-8.5-1.3-9.6-2.4-9.2-10.3
		c0.2-3.2,1.5-3.7,4.3-3.7c16.4,0.1,32.8-0.2,49.1,0.1c10,0.2,18.5,7.5,21.7,17.3c2.5,7.6,4,15.2,4,23.3
		C257.3,363.9,257.4,395.5,257.4,427.1z"/>
	<path class="st1" d="M-22.4,428.6c3-7.5,9.4-6.8,15.6-6.6c3.8,0.2,6.3-1,8.3-4.5c2.1-3.6,0.3-5.9-1-8.8c-1.3-2.9-3.9-3-6.1-3.1
		c-9.9-0.4-12.5,2.4-16.3-11.5c-0.9-3.1-2-5.5-5.6-5.7c-2.3-1.4-5.1,0.2-7.3-1.2c-5.5,0-9.4-2.8-12.5-7c-0.9-2.3-0.9-4.6,0-6.9
		c4-7.1,10.2-9.2,17.8-8c7.8,1.2,12.6-1,13.2-9.8c0.3-3.9,3.4-6.5,7.5-6.7c6.2-0.3,8.9-4.3,10-9.5c1.2-5.6,4.3-8.8,9.6-10.3
		c2.8-1,5.5-0.9,8.3-0.1c1.4,0,2.7,0,4.1,0c1.7,11,4.3,21.8,5.8,32.8c1.2,8.6,9.7,13.2,15.8,19c6.7,6.4,13.1,13.1,18.9,20.3
		c3.8,4.7,0.6,11.6-5.6,13.6c-11.8,3.8-12.7,6.5-5.6,16.4c4.1,5.7,3.6,10.3-1.5,15.1c-3.5,3.3-6,6.3-0.4,10.4
		c4.3,3.2,4.7,8,1.1,12.1c-4.5,5.1-5.1,10.3-2.5,16.4c2.2,5.3,3.1,11.1,4.1,16.5c2.2,11.6-8.8,31-24.9,31c-5.1,0-10.1,0.1-15.2,0
		c-10.2-0.2-27.1,9.6-29.8,20.9c-1.1,0.6-2.2,1-3.5,0.9c-8.4-1-16.8-0.2-25.2-0.5c-4.9-0.2-8.7-1.9-10.3-7c-0.6-2.3-0.5-4.7-0.4-7.1
		c0.7-4.2,3.2-7,7.2-8.5c1.9-0.5,3.8-0.6,5.7-0.6c3.9-0.1,7.9-0.5,11.7,0.1c9.2,1.3,14.9-2.7,18.7-10.7c2.7-5.7,7-9.7,13.7-10.1
		c4.6-0.3,9.2,0.5,13.7-0.6c5.1-4,4.7-5.6-2.1-9.2c-9.4-0.7-18.8-0.1-28.3-0.3c-8-2.4-11.8-11.9-7.5-18.8c1.4-2.2,3.1-4.1,6.1-2.5
		c3.2,0,6.4,0,9.7-0.1c4.1-1.7,8.6,0.4,12.8-1.2c5.3-0.7,5.9-5.5,6.6-9c1.4-7.1,5.7-10,12.4-10.2c4.2-0.1,7.9-1.3,8.6-5.8
		c0.8-4.7-1.7-7.8-6.6-8.4c-7.5-1.4-15.1-0.2-22.7-0.6c-5.1-0.3-10.2,0.7-15.3-0.6c-4.6,0-8-2.5-11-5.6
		C-23.3,434.2-23.3,431.4-22.4,428.6z"/>
	<path class="st2" d="M-156.4,279.1c1.3-3.6,4.5-4.1,7.7-4.6c5.7-0.9,8.5-4.4,8-10.1c-0.5-5.5-3.9-8.8-9.5-8.9
		c-9.4-0.2-18.8-0.1-28.2-0.1c-4.4,0-8.2-0.8-9.9-5.6c0.7-2.3-0.4-2.1-0.9-4.3c0.7-2.5,1.8-8.3,2.9-6.6c-6.5-2.3,42.5-2.5,46-1.8
		c7,1.4-13.1,0.9-6,0.6c0.9,0.3,7.2-0.6,7.9-0.7c2.2,1.3-1.1,3-1.5,4.7c-1.8,8.9-0.8,10.4,7.9,12.1c1.1,0.2,2.2,0.5,3.2,1.1
		c4.7,6,11.7,4.9,18,5.8c0.6,0.3,1.4,0.7,1.5,1.3c2.4,10.1,9.7,11.7,18.5,10.9c2.3-0.2,4.6-0.1,6.9,0.2c6.2,0.8,10.2,4.7,10.3,10.2
		c0.1,5-4.1,9.9-9.7,11c-3.2,0.6-6.4,0.3-9.6,0.4c-2.3,0.1-4.6,0-6.8,1c-2.9,1.4-5,3.5-4.7,7c0.3,3.5,2.8,5.2,6,5.8
		c3.9,0.7,7.8,0.2,11.7,0.5c7.4,0.6,11.4,3.6,13.3,10.8c1.4,5.3,4.9,7.2,9.6,8.8c7.6,2.5,9.5,6.7,7,14.2c-7.2,2.2-15.6,0.6-21.7,6.5
		c-5.5,0.6-11.4,3.6-15.9-2.4c5.8-8.5,4.8-12.5-4.2-17.8c-1-1.4-2.5-1-3.8-1c-21.4,0-42.7,0-64.1,0c-0.9,0-1.8,0.1-2.7,0.5
		c-3.2-0.4-5.1-2.1-5.6-5.3c0.9-1.9-0.3-3.7,0-5.6c1.5-5.7,6.2-6.3,10.9-6.3c7.8-0.2,15.7,0,23.5,0c7,0,11.2-3.5,11.3-9.2
		c0.1-5.7-4-9.4-11-9.9c-5-0.3-10.2,1.1-14.7-2.3c-0.8-0.6-1.3-1.8-1.9-2.7C-156.3,284.6-156.5,281.9-156.4,279.1z"/>
	<path class="st3" d="M-84.8,442.8c-3.1-1.9-6.5-2-10-2c-26.1,0-52.1-0.1-78.2-0.2c-2,0-4.2,0.5-6.1-0.7c1.4-1.9,3.5-2.1,5.6-2.2
		c11.3-0.2,22.5-0.2,33.8,0c1.8,0,3.7,0.2,4.6,1.4c-1.6-1.6-3.6-3.7-4.3-6.7c-1.2-5.5-5-7.2-10.2-7.2c-3.9,0-7.8,0.3-11.7-0.8
		c-5.8-1.6-9.6-6.1-9.5-11.2c0.1-5.1,4-9.5,9.8-11c2-0.5,4.1-0.6,6.2-0.6c15.6,0,31.3,0,46.9,0c2.5,0,5.1,0,7.4,1.3
		c1.3,3.5-0.4,7-0.2,10.6c0.4,9.2,5,14.2,14.5,14.4c7.6,0.1,15.2,0.3,22.8-0.1c5.3-0.3,7.7,2,8.5,6.8c1.1,7,4.3,11.4,12.1,11.4
		c4.2,0,6.3,3,7.3,7c2.5,9.4,3.4,10.1,12.9,10.9c4.1,0.3,6.3,2.1,6.6,6.3c0.3,4.8-2.6,5.8-6.5,6c-6,0.2-12,0.1-18,0.1
		c-4.4,0-7.3,1.8-9.1,6c-5.2,12-13.5,15.1-26.9,10.3c-2.6-11.9-2.9-12.1-15.6-12.2c-3.9,0-7.8,0.2-11.8-0.1
		c-8.6-0.7-12.9-5.3-12.3-14c0.3-4.4-2.1-3.8-4.6-3.8c-13.6,0-27.2,0-40.8-0.1c-3.1,0-6.5,0.6-9.1-2c2.3-1.7,4.9-1,7.4-1
		c23,0,46.1,0,69.1,0c3.3,0,6.4-0.2,9.2-2c2.7-0.2,5.5-0.1,8.2-0.3c3.9-0.4,6.4-2.5,6.5-6.6c0.1-4-2-6.5-5.9-7.3
		C-78.9,442.7-81.9,442.9-84.8,442.8z"/>
	<path class="st0" d="M-76.3,492.4c3.2,0,6.5,0,9.7,0c11.1,0,11.8-0.6,15.3-11.6c1.6-4.9,5-7.4,11.4-6.1c5.5,1,11.1,0.6,16.6-0.3
		c2.3-0.4,6.1,1.4,6.4-3c0.3-3.5-1.4-6.7-4.7-6.5c-9.8,0.8-13.7-3.9-15.1-12.9c-0.5-3-3.4-5.5-7.2-5.4c-7.1,0.2-10.7-3.8-11.6-10.2
		c-0.8-6-3.7-8.3-9.7-7.9c-5.7,0.4-11.5-0.1-17.3,0.1c-17.8,0.8-21.8-8.1-17.5-24.9c0.4-6.7,6.2-5.6,10.2-7.1
		c10.5-1.1,21.1,0.6,31.6-2c-10.1-4.8-21.1-1.5-31.5-3.2c-3.2-0.9-5.5-2.9-7-5.9c-1.5-5.2-0.9-10.4-0.7-15.7
		c0.2-3.4,1.8-6.9,4.9-7.7c7.6-2,11.6-7.3,14.7-13.8c5.9-5.5,13.7-4.2,20.7-5.6c4.1-3,8.9-1.8,13.4-1.8c6.1,0.1,10.2-1.8,11.3-8.4
		c1-5.8,5-8.4,10.5-9.4c2.8-0.5,6,0.2,8.8-2.4c-4-3.1-8.2-2.2-12.1-2.3c-9.5-0.3-11.6-1.5-14.7-10.3c-1.9-5.3-5.4-7.7-10.9-7.7
		c-2.8,0-5.5,0.1-8.3-0.4c-6.7-1.3-10.5-5.6-11-12.3c-0.2-2.5-0.2-5.1,0-7.6c0.5-7.6,3.1-10.7,10.4-12.5c2.1-0.5,4.7-0.2,6.2-2.6
		c-2.1-2.6-5-1.9-7.6-1.9c-13.6-0.1-27.1,0-40.7-0.1c-3.2,0-6.5,0.1-9.3-1.9c-6.4-0.6-13.4,0.8-18.1-5.5c-5.2-4.5-3.1-10.1-2.3-15.6
		c-2.7-1.1-6.2,0.1-8.7-2.3l0.6-0.1l6.7,0.1c-11.1,0.9-8.6-1,4.3-1c6.2,0,1,1.1,1,1.1c18.4,0-11.6-0.5,1.3-1.3
		c-0.9,2.1-2.2,4.1-2.6,6.3c-2,11.2,2.8,16.8,14.6,16.9c18.7,0.2,37.4,0,56,0c1.6,0,3.2,0,4.8,0c3.5,0,6.1,2.2,6.7,5
		c0.7,3.3-2.7,4.3-5.4,5c-0.9,0.2-1.7,0.7-2.6,0.9c-11.7,2.2-12.2,2.8-12,14.8c0.1,7.3,4,11.4,11.4,11.7c2.5,0.1,5.1,0.2,7.6,0
		c7-0.5,10.4,3.5,11.3,9.5c1,6.3,4.2,8.6,10.2,8.6c4.8,0,9.6-0.9,14.4,0.9c2.3,0.8,4.4,1.4,4.5,4.4c0.1,3.3-2.4,5.2-4.7,5.1
		c-11-0.5-17.8,3.5-19.4,15.1c-0.4,3.2-4.2,3.6-7.5,3.6c-9.6,0-19.3-0.3-28.9,1.2c-5.7,0.9-9.8,3.2-9.9,9.2
		c-0.1,5.8-3.8,7.5-8.2,8.5c-10.9,2.6-8.8,7.3-8.5,17.8c0.3,7,5.9,7.7,11.7,7.5c6-0.2,12,0,18,0c2.3,0,4.5,0.1,6.8,0.9
		c2.9,1,6.3,1.9,6,5.6c-0.4,3.9-3.8,4.5-7.3,4.6c-10.6,0.4-21.1-1-31.7,0.8c-6.1,1-8.8,4.3-9.1,10.2c-0.5,9,1.6,13.1,8.2,15.4
		c7.6,2.6,15.5,0.9,23.3,1.2c12.3,0.5,11.6-2.3,15.2,10.7c1.4,5,4.8,7.2,9.6,7.3c5.2,0.2,7.9,2.8,8.9,7.8c1.3,6.4,4.2,10.9,12,10.4
		c6.2-0.3,8.5,3.1,7.2,9.1c-0.4,2-0.9,4-1.4,6c-6.2,1.4-5.8,6.1-5.4,10.8c0.4,4.3,1.2,8.3,6.7,8.6c7.7,1.5,15.5,0.2,23.2,0.6
		c2.5,0.1,5-0.4,7.5,0.5c4.4,0.2,5,3.8,5.6,6.9c0.5,2.9-1.2,4.6-4.3,4.5c-5.1,1.4-10.4-0.6-15.4,1.1c-4.8,0.1-8.9,2.7-10.3,6.7
		c-4.6,12.7-13.5,16.5-26.1,14.5c-2.5-0.4-5-0.2-7.6-0.3c-0.7-0.6-1.2-1.4-1.2-2.4c0.1-7.9,0.1-8-8-8.1c-11.5-0.1-23,0-34.5,0
		c-6,0-11.8-0.8-14.6-7c-2.9-6.6-3.6-13.3,1.4-19.5C-92.3,491.1-84.4,491.1-76.3,492.4z"/>
	<path class="st2" d="M-76.3,492.4c-6.1,2.9-13,0.4-19.1,2.9c-1,0.4-2,0.9-3,1.3c-2.9,1.9-6.1,1.8-9.3,1.9
		c-5.1,0.1-10.1-0.4-15.2,0.4c-3.9,0.6-7.3,2.4-7.6,6.8c-0.3,4.4,2.8,6.5,6.6,7.7c1.3,0.4,2.7,0.6,4.1,0.7c5.5,0.4,9,3.5,10.3,8.7
		c1.6,6.7,5.8,9.1,12.5,9.5c9.7,0.5,13.9,6.5,11.3,15c-6.1,4.3-12.8,2.5-19.3,1.9c-4.5-1.3-1-5.8-3.2-8c-2.4-5.7-6.4-8.4-12.9-8
		c-6.2,0.4-9.8-2.9-10.6-9.3c-0.7-6.3-4.4-9.3-10.7-9.2c-5.1,0.1-10.1,0.1-15.2,0c-5-0.1-8.2-3-9.1-7.5c-0.8-4.3,0.8-8.2,5.9-9.3
		c4,1.9,8.3,0.1,10.4,0.6c-2.1-0.3-6.4,1.1-10.4-0.6c3.2-2,6.7-1.1,10-1c6,0.2,11.3-1,13-7.5c1.7-6.4-2.7-9.5-7.7-12
		c-8.4,0.1-16.4,0.1-24.9-0.3c-4.9-0.5-7.1-3.8-7.2-8.2c-0.1-4.5,3.6-8.4,8.3-9.2c19.6-0.9,37.9-0.9,57.7,0c-2.4,5-5.4,10.4-1,15.1
		c2.5,2.7,5.5,3.9,9.2,3.8c5.8-0.1,11.5-0.1,17.3,0C-76.6,478.6-73.3,483.3-76.3,492.4z"/>
	<path class="st2" d="M-95.6,385.6c1.8,1.4,3.6,2.9,5.4,4.3c2.8,2.7,4.1,5.4,0.1,8.2c-3.1,2.2-8,1-9.7,5.5c-18.2,0-36.4,0-54.5,0
		c-1.6,0-3.3-0.2-4.8,0.1c-5.3,1.1-9.8,3.3-9.8,9.6c0,6.3,4.5,8.8,9.8,9.5c4.1,0.5,8.3,0.4,12.4,0.1c5.4-0.4,8.4,2.5,9.2,7.3
		c0.5,3.2,1.6,6.8,4.7,10.4c-15.8,0.8-30.7,0.5-45.6-0.2c-5.2-0.2-7.8-4.2-8.4-8.7c-0.9-7-5-9.9-11.8-9.8c-7.4,0.1-14.7,0-22.1,0
		c-5,0-8.7-1.9-9.7-6.9c-1.1-4.9,0.9-8.5,6-9.9c16,0.7,32,1.5,48-0.4c5.5-1.6,8.9-4.9,9.5-11c0.6-5.7,4.6-8.1,10.1-8.2
		c7.3,0,14.7-0.4,22,0.1c6.1,0.4,10.1-2,12.7-7.2c1.2-4.3,1.2-4.3-1.4-7.8c-0.5-0.5-0.9-1-1.4-1.5c3.1-3.6,6.1-3.3,9.4,0.7
		C-110.9,375.7-101.5,383.1-95.6,385.6z"/>
	<path class="st0" d="M-106.7,547.8c6.8-0.9,13.9,1.7,20.6-1.7c2-3.3,4.3-6.5,5.3-10.3c1.6-5.9,5.6-8.7,11.4-9.2
		c5.7-0.5,11.4-0.7,17.1,0c3.2,0.4,6.1,1.6,3.5,5.8c-2,2.1-4.8,3.7-5.4,6.9c-1.1,2.3-0.9,4.6-0.1,6.9c1.7,3.5,4.5,5.3,8.4,5.6
		c8.8,1.8,17.9-0.4,26.7,1.2c0.9,0.1,1.8,0.1,2.7,0.2c-2.2,2.9-0.9,6.4-1.6,9.5c-1,4.3-2.2,8.5-8,8.4c-35.5-0.2-71-0.3-106.5-0.4
		c2-4.5,6.1-2.9,9.3-3c10-0.4,10-0.2,10.4-10.1c0.1-2.7-0.1-5.5,2.4-7.5c0.1-0.4,0.3-0.6,0.8-0.6c0.1-1.5,1.3-1.6,2.3-1.9
		C-107.2,547.8-106.9,547.8-106.7,547.8z"/>
	<path class="st4" d="M-95.6,385.6c-2.3,0-4.6,0.1-6.9,0.1c-8-0.1-10.9-2.6-12.6-10.6c-1.3-6.1-4.4-8-9.8-5.9
		c-3.2-2.5-7.1-2.6-10.9-2.8c-7.3-5.5-7.6-10.4-1-15.9c0.8-0.1,1.6-0.1,2.4-0.1c10.5,0,21,0,31.6,0c0.5,0,0.8,0.3,1.1,0.1
		c-11.3-0.2-22.7-0.2-34.1-0.2c-7.6,1.8-15.3,1.5-23,0.7c-0.8-0.3-1.5-0.8-2.1-1.5c13.9-2,28-0.3,41.9-1.1
		c8.2-0.5,16.6,1.5,24.6-1.5c5.3,2.7,11.1,0.7,16.6,1.3c-0.6,8-3.4,13.6-12.7,14.4c-3.1,0.3-5.4,3.8-5.3,7.8
		C-95.5,375.6-95.6,380.6-95.6,385.6z"/>
	<path class="st5" d="M-185.7,534.1c4.6,1.5,6.8,4.8,6,9.4c-0.9,4.9-4.4,7.6-9.3,7.7c-14.2,0.2-28.5,0.2-42.7,0
		c-4.9,0-8.5-2.6-9.5-7.5c-0.9-4.5,1-8.1,5.8-9.5C-218.9,534.8-202.3,534.9-185.7,534.1z"/>
	<path class="st2" d="M-192.6,349.8c6.5,4.3,7.1,7.2,2.7,13.6c-3.5,1.3-7,1.6-10.7,1.6c-14.4-0.1-28.8-0.1-43.2,0
		c-7.2-5.3-6.6-11.8,1.3-15.5C-225.9,350-209.2,349.6-192.6,349.8z"/>
	<path class="st6" d="M-260.7,382.9c-1,2.8-3.6,4-5.9,4.1c-9.4,0.3-18.8,0.4-28.1,0c-4.6-0.2-7.7-3.6-8.1-8.1
		c-0.3-4,1.5-7.6,6.1-8.6c6.5,2,13.2,1.6,19.7,0.9c2.8-0.3,5-0.1,7.5,0.1c-9.1-0.7-18.2,1-27.2-1c10.1-2.1,20.4-0.9,30.6-0.7
		c2.2,0,4.3,1.4,5.4,3.7C-260.5,376.5-260.5,379.7-260.7,382.9z"/>
	<path class="st7" d="M-110.6,550.3c-0.1,4.1-0.7,8.3-0.2,12.3c0.7,6.4-2,7.8-7.8,7.5c-4.7-0.3-9.5-1.2-14.1,0.8
		c-9.4-0.1-18.9,1.5-28.3-0.9c3.9-3.4,8.7-1.6,13-2c2.9-0.3,5.9,0.4,9.1-0.5c-0.9-4.8-2.6-9.9,2.9-13.2c0.7-0.3,1.5-0.4,2.2-0.3
		c4.9,0,8.8-0.2,13.7-0.3c0.9-0.3,0.7-1.4,1.2-0.6c0.2,0.3,0,0.5-0.4,0.5c-3.8,0.2-26.6,1-15.1-0.5
		C-127.8,551.3-116.9,553.7-110.6,550.3z"/>
	<path class="st5" d="M-135.8,554.7c-3.6,4.8-3.5,9.7,1.6,15.3c-10,1.2-18.6,1.3-26.9,0c-4.2-1.8-6.7-5-6-9.6c0.6-4,2.8-7.3,7.6-7.2
		c5.4,1.6,10.9,0.3,16.3,0.7C-140.6,554.2-138.1,553.3-135.8,554.7z"/>
	<path class="st2" d="M-137.2,351.1c-4.3,5.6-2.6,10.5,1.4,15.3c-7.1,0.1-14.2,0.3-21.3,0.3c-4.8,0-8.5-2.1-9.6-7.1
		c-1.1-5,0.8-8.4,5.8-10c0.6,0.2,1.2,0.3,1.8,0.5C-151.8,351.2-132.1,349.1-137.2,351.1z"/>
	<path class="st8" d="M-212,469c-0.2-5.1,4.2-9.3,9.7-9.4c5.6-0.1,10.3,4,10,9.1c-0.3,5.7-3.7,8.6-9.4,8.8
		C-207.8,477.6-211.9,474.3-212,469z"/>
	<path class="st9" d="M-269.9,409.3c2.4-5.4,7-5.2,11.7-4.5c3.9,0.6,5.9,3.3,6.8,6.9c0.9,3.5-0.8,6.3-3.4,8.5
		c-4.8,4-11.8,2.1-15.4-3.9C-269.5,413.9-270.1,411.6-269.9,409.3z"/>
	<path class="st8" d="M-209.1,280.5c1.2-4.7,4.8-5.9,8.9-5.8c4.1,0,7.8,1,8.9,5.8c-0.3,2.3-0.8,4.5-0.3,6.8
		c-5.5,7.3-13.8,6.7-17.7-1.3C-208.7,284.2-208.1,282.4-209.1,280.5z"/>
	<path class="st2" d="M-84.8,442.8c3.7-2.9,7.8-2.1,11.7-0.7c4.7,1.7,5.8,5.9,5,10.2c-0.7,4.3-3.7,6.9-8.3,6.7
		c-2.8-0.1-6.1,1.3-8.4-1.6C-80.6,452.6-80.8,447.7-84.8,442.8z"/>
	<path class="st2" d="M-243.8,365c2-2.3,4.7-1.4,7.1-1.4c12.7-0.1,25.4-0.4,38,0.2c3.1,0.2,5.8-3.6,8.8-0.5
		c-1.3,2.3-3.7,2.9-5.9,2.9c-15,0.1-29.9,0.1-44.9,0C-241.8,366.2-242.8,365.4-243.8,365z"/>
	<path class="st2" d="M-192.6,349.8c-1.2,1.5-2.8,1.3-4.4,1.3c-13.5,0-27,0-40.5,0c-1.8,0-3.7,0.3-5-1.5
		C-225.9,348.3-209.2,347.9-192.6,349.8z"/>
	<path class="st2" d="M-169,328.7c1.4-1.6,3.4-1.2,5.2-1.2c19.9,0,39.9,0,59.8,0c2,0,4.2-0.6,5.6,1.7
		C-122,329.1-145.5,328.9-169,328.7z"/>
	<path class="st5" d="M-185.7,534.1c-3.4,2.3-7.2,1.2-10.7,1.1c-13-0.4-26.1,1.4-39-1C-218.9,533-202.3,533.1-185.7,534.1z"/>
	<path class="st6" d="M-176.4,404.8c0.8,1.1,0.4,1.6-0.8,1.6c-14.9,0-29.9,0-44.8-0.1c-0.8,0-1.6-0.7-2.4-1.1
		C-208.4,403.8-192.4,404.6-176.4,404.8z"/>
	<path class="st2" d="M-170.4,477c8.3-1.9,16.6-2.4,24.9,0.3C-153.8,477.2-162.1,477.1-170.4,477z"/>
	<path class="st5" d="M-135.8,554.7c-7.8-0.9-15.9,1.6-23.6-1.5c8.3-0.7,16.6-0.5,25-0.1c0.4,0.3,0.6,0.7,0.4,1
		c-0.2,0.3-0.3,0.5-0.5,0.5C-134.9,554.6-135.3,554.7-135.8,554.7z"/>
	<path class="st6" d="M-260.7,382.9c-1.7-3.2-1.7-6.4,0-9.6C-258.3,376.5-258.2,379.7-260.7,382.9z"/>
	<path class="st2" d="M-123.5,370.8c6,1.8,2,6.1,2.3,9.3c-0.2-0.1-0.4-0.1-0.5-0.3c-0.2-0.4-0.3-0.8-0.4-1.3
		C-121.9,375.8-122.6,373.3-123.5,370.8z"/>
	<path class="st2" d="M-156.4,279.1c1.8,2.8,1.9,5.5-0.1,8.2C-158.5,284.6-158.3,281.9-156.4,279.1z"/>
	<path class="st9" d="M-269.9,409.3c1.6,2.4,1.9,4.7-0.3,6.9C-271.6,413.8-271.3,411.6-269.9,409.3z"/>
	<path class="st2" d="M-174.6,317.9c2,1.8,2,3.7,0,5.6C-175.8,321.6-175.8,319.7-174.6,317.9z"/>
	<path class="st2" d="M-108.2,541c0.4-0.4,0.6-3,1.3-0.5c0.7,2.3,0.2,4.9,0.2,7.4c0,0,0,0,0,0c-2.7,0-2.1-1.7-1.6-3.3
		C-108.3,543.4-108.2,542.2-108.2,541z"/>
	<path class="st8" d="M-191.5,287.3c-1.6-2.3-1.8-4.6,0.3-6.8C-189.7,282.8-190.3,285.1-191.5,287.3z"/>
	<path class="st2" d="M-188.2,243.2c1.7,2.3,1.8,4.6-0.1,6.8C-189.5,247.7-189.6,245.4-188.2,243.2z"/>
	<path class="st2" d="M-108.3,544.6c0.2,1.2,0.4,2.5,1.6,3.3c-1,0.6-2.1,1.2-3.1,1.8C-110.8,547.5-109.3,546.1-108.3,544.6z"/>
	<path class="st8" d="M-209.1,280.5c1.8,1.9,1.8,3.7-0.1,5.5C-210.1,284.2-210,282.3-209.1,280.5z"/>
	<path class="st10" d="M574.5,472.4c0,5.5,0.1,11.1,0,16.6c-0.4,17.8-25.5,33.3-41,25c-5.1-2.8-8.5-8.4-9.6-13.9
		c-1.4-7.4-1.2-15-0.3-22.6c1.5-13.5,14.3-23.3,25.5-24.9c6.9-1,14-2.4,21.1-1.9c3.3,0.2,4.4,1.1,4.3,4.4
		C574.3,460.8,574.5,466.6,574.5,472.4z"/>
	<path class="st0" d="M4,442.5c7.5,0.2,15.2-2.1,22.6,1.2c-7.5,0-15.1,0-22.6,0c-0.4-0.3-0.6-0.6-0.4-0.8
		C3.7,442.7,3.9,442.5,4,442.5z"/>
	<path class="st0" d="M4,442.5c0,0.4,0,0.8,0,1.2c-5.1-0.5-10.4,1.6-15.3-1.2C-6.2,442.5-1.1,442.5,4,442.5z"/>
	<path class="st0" d="M19.2,328.8c-2.8,0-5.6,0.1-8.3,0.1C13.6,326.9,16.4,326.9,19.2,328.8z"/>
	<path d="M-22.4,428.6c0,2.8,0,5.6,0,8.3"/>
	<path class="st0" d="M-27.5,388.4c-2.4,0.2-5.2,0.9-7.3-1.2"/>
	<path d="M-47.3,373.3c0,2.3,0,4.6,0,6.9"/>
	<path class="st4" d="M-48.8,532.5c0.1-1.9,0.3-4.1-2.4-4c-7.1,0.2-14.2-0.9-21.3,0.7c-4,0.9-6.3,3.3-6.4,7c-0.2,5.2-3.4,7.7-7.2,10
		c0-8.7-3.4-12.2-11.8-12.3c-9-0.1-11.1-1.8-13.2-10.4c-1.1-4.6-3.4-8-9-7.7c-1.3,0.1-2.8-0.1-4.1-0.4c-5.6-1.2-9.4-4.6-8.7-10.5
		c0.6-5.6,5.1-8.1,10.3-8.3c8-0.3,16.1-0.1,24.2-0.1c-4.6,5.9-3.5,12.3-0.9,18.3c2.4,5.6,8,5.2,13.2,5.2c12.2-0.1,24.5,0,36.7,0
		c1.8,0,3.8-0.2,5.5,0.4c3.3,1.2,7.2,2.7,2.6,7c-1.5,1.4-1.7,3.2-1.5,5.1C-44.8,532.5-46.8,532.5-48.8,532.5z"/>
	<path class="st0" d="M-19.2,553.2c-8.9-0.6-17.9,1.7-26.7-1.2C-37,552.2-28,549.9-19.2,553.2z"/>
	<path class="st3" d="M-110.9,261.1c17.7,0,35.5,0,53.2,0c2,0,4.2-0.5,6.1,0.7c1.3,0.9,2.9,1.9,2.6,3.7c-0.2,1.5-1.6,2.1-3,2.5
		c-1.6,0.4-3,1.1-4.6,1.3c-10.9,1.7-12.3,4.1-11.3,19.5c0.4,6.3,5,9.5,13.4,9.6c12.3,0.1,12.2,0.1,17.5,12.8
		c1.5,3.6,4.5,5.4,8.8,5.3c5.5-0.1,11-1,16.4,1.2c1.3,0.6,2.7,1,3,2.5c0.3,2-1.4,3.3-2.8,3.3c-11.3,0.2-19.6,3.9-21.4,16.6
		c-0.4,2.5-3.9,2.7-6.5,2.7c-5.8-0.1-11.5-0.1-17.3-0.1c0.8-7.2-1.1-11.9-9.5-12.8c-4.3-0.5-7.8-3.4-8.5-8.7
		c-0.8-6.8-4.5-10-11.3-10.2c-3.9-0.1-7.8,0.2-11.7-0.1c-5.4-0.4-8.7-3.5-8.6-8.9c0.2-5.2,3.6-8.4,8.7-9c4.1-0.5,8.3,0,12.4-0.1
		c5.6-0.1,10.3-4.2,10.5-8.8c0.2-5.6-3.6-9-10.5-9.2c-1.8-0.1-3.7,0-5.5,0C-106.3,274.9-106.3,274.9-110.9,261.1z"/>
	<path class="st11" d="M-140.1,237.7c0.9,0,1.8,0,2.7-0.1c6.1-1,8.2,1.4,7.2,7.5c-0.5,3.5-0.7,7.2,1.2,10.6
		C-143,255.5-145.6,251.3-140.1,237.7z"/>
	<ellipse class="st2" cx="-165.5" cy="253.5" rx="22.3" ry="0.4"/>
	<path class="st3" d="M-90.1,398.2c2.2-2.7,0.6-5.5-0.1-8.2c8.5,0,17,0,25.6-0.2c2.4,0,4.5,0.7,6.7,1.3c2.1,0.6,4.5,1.6,4.2,3.8
		c-0.3,2.4-2.8,3.4-5.4,3.3C-69.4,398.2-79.8,398.2-90.1,398.2z"/>
	<path class="st2" d="M-160.9,497.8c4.5,0,9.1,0,13.6,0C-151.8,498.5-156.5,500.8-160.9,497.8C-160.9,497.7-160.9,497.8-160.9,497.8
		z"/>
	<path class="st4" d="M-136.1,350.1c12,0,23.9,0,35.9,0c0,0.3,0,0.7,0,1c-11.9,0-23.8,0-35.7,0l-0.5-0.4L-136.1,350.1z"/>
	<path class="st6" d="M-296.7,370.3c9.6,0,19.3,0,28.9,0C-277.4,370.9-287.1,373.8-296.7,370.3
		C-296.7,370.3-296.7,370.3-296.7,370.3z"/>
</g>
</svg>
