<?xml version="1.0" encoding="utf-8"?>
<!-- Generator: Adobe Illustrator 23.0.3, SVG Export Plug-In . SVG Version: 6.00 Build 0)  -->
<svg version="1.1" id="Слой_1" xmlns="http://www.w3.org/2000/svg" xmlns:xlink="http://www.w3.org/1999/xlink" x="0px" y="0px"
	 viewBox="0 0 1041.7 350.4" style="enable-background:new 0 0 1041.7 350.4;" xml:space="preserve">
<style type="text/css">
	.st0{fill:#378AA8;}
	.st1{fill:#FEF0B9;}
	.st2{fill:#312F55;}
	.st3{fill:#3D477C;}
	.st4{fill:#3D477B;}
	.st5{fill:#323056;}
	.st6{fill:#323055;}
	.st7{fill:#3E477C;}
	.st8{fill:#333156;}
	.st9{fill:#333157;}
	.st10{fill:#3F497D;}
</style>
<g>
	<path class="st0" d="M956,118.6c16.1-0.9,30.8,1.9,44.9,8.4c8.7,4.1,13.4,10.6,14.5,20.1c0.8,7.2,1.3,14.4,1.3,21.7
		c0,3.8-0.9,5.4-4.9,4.9c-1.8-0.3-3.8-0.3-5.6,0c-3.1,0.6-4-1.1-4.6-3.7c-4-17.1-12.6-30.1-31.3-33.3c-9.9-1.7-19.8-1.8-28.6,4.2
		c-9.2,6.3-8.8,23.2-1.5,29.1c9.3,7.5,20.2,11.5,30.9,15.9c13.7,5.7,27.4,11.4,38.7,20.9c7.3,6.2,13.4,14.4,13.1,25.1
		c0,0.6-0.1,1.3,0,1.9c2,18.7-7.7,30.2-22.9,39c-9.3,5.4-19.6,6.9-29.8,8.5c-16.5,2.7-33.2,1.1-49.1-2.8
		c-19.8-4.8-28.8-12.4-28.8-35.2c0-3.6-0.3-7.1,0.1-10.7c0.3-2.2-2.1-6.5,2.3-6.3c3.8,0.2,8.6-3.1,11.8,3.4c2.1,4.3,3.4,9,5.1,13.2
		c4.6,11.4,13.2,16.3,24,19.9c11.9,4,23,2.2,34.1-2.8c10.7-4.8,12.7-20,4.7-27.8c-7.3-7.1-16.8-10.9-26-14.8
		c-15.3-6.4-30.8-12.7-43.4-23.6c-8.1-7-14.6-15.6-14.2-27.9c0.4-9.7,0.2-19,7.3-26.9c8.6-9.4,18.8-15.6,31.3-18.6
		C938.5,118.8,947.5,118,956,118.6z"/>
	<path class="st0" d="M654.4,226.2c4.4-11.5,8.3-21.2,12-31c3.8-10.1,7.8-20.2,11.4-30.4c3.7-10.7,8.7-20.8,11.6-31.7
		c2.8-10.7,10-14.7,21-11.9c2.5,0.6,4.9,1.3,2.8,5.5c-3.6,7.3-6.1,15.1-9,22.8c-4.9,13.1-9.5,26.2-14.5,39.2
		c-3.8,10.1-8.2,19.9-11.7,30.1c-3.5,10.3-7.8,20.3-11.5,30.4c-5.9,16-11.3,32.1-17.7,47.9c-4.7,11.6-9,23.4-17.6,33.1
		c-4.1,4.6-9.2,7.9-14.6,10.2c-10.2,4.3-20.8,6.6-32.1,5.4c-3.3-0.3-5.1-0.8-4.6-4.5c0.2-1.4,0.2-3,0-4.4c-0.9-5.4,1.5-6.1,6.5-6.5
		c16.4-1.1,30.3-7.1,37.4-23.4c2.1-4.8,3.7-9.9,6.4-14.3c5.6-9.3,1.3-17.6-2.9-24.9c-4.9-8.5-8-17.7-12.5-26.3
		c-4.7-9.1-8.8-18.6-12.8-28c-4.2-9.8-8.8-19.5-13.2-29.2c-5.5-12.5-10.4-25.4-17.2-37.1c-4.1-7-9.4-14.3-18.3-16.8
		c-2.4-0.7-4.8-1.2-7-2.3c-2.2-1.1-3.5-3.2-2.6-5.8c0.6-1.6,0.8-3.9,3.4-3.7c14.4,1.1,29.1-2.5,43.3,2.5
		c16.4,5.7,26.1,17.7,32.3,33.4c4,10.2,9.1,20.1,13.7,30.1c4,8.6,8.4,17.1,11.9,26C650.1,215.1,653.4,219.3,654.4,226.2z"/>
	<path class="st0" d="M183.2,9.5c11.9-0.1,24.1-1.7,35.7,0.2c21.1,3.4,41.3,10.1,58.5,24c16.1,13,27.6,29.2,36.2,47.8
		c1.8,3.9,4.3,7.6,5.2,11.9c-0.9,1-2.1,1.2-3.4,1.1c-2.7-0.6-5.3-1-7.9,0.4c-4,1.6-6.2,4.5-7.4,8.6c-1.3,4.7-4.1,8.2-9.2,9.1
		c-4,0.7-5.9,3.3-7,7c-2.3,7.5-3.2,8.1-11.1,8c-6.2-0.1-12.2,0-16.1,5.9c-1.4,1.8-1.8,3.8-0.4,5.8c2.5,3.7,6.2,5.2,10.4,5.9
		c2,0.7,4.1,0.5,6.2,0.8c4.1,0.8,6,3.7,6.8,7.4c1.3,6.3,5.2,8.6,11.2,8.3c3.4-0.1,6.6,0.4,8.7,3.8c4,6.3,0.3,13-7.7,13.6
		c-4.8,0.3-9.8-0.3-12.7,4.8c-1.5,2.2-1.8,4.5-0.3,6.8c2.6,3.1,6.1,4.2,9.9,4.8c4.4,0.9,8.8,0.3,13.1,0.4c6.2,0.1,12.4-0.1,18.6,0.1
		c5,0.6,8.4,3,8.4,8.3c0,5.3-4.1,6.9-8.4,7.6c-5.6,0.8-9,3.5-10.5,9.1c-1,3.8-2.8,7.5-7.4,8.4c-3.8,0.5-7.8-0.3-11.5,1
		c-2.9,0.4-5.8,0.9-8.5-0.9c-1.4-1.7-0.8-3.6-0.5-5.4c0.9-4.4-0.7-7-5.3-7.1c-6.4-0.1-10.2-3.5-11.6-9.4c-1.1-4.4-3.5-6.7-8.1-7.3
		c-5.7-0.7-8.7-4.7-9.8-10.1c-0.9-4.6-3.5-6.1-8-6c-6.5,0.2-13,0.3-19.4-0.1c-9.3-0.5-14.4-5.9-14.3-14.7
		c0.1-8.9,3.9-12.9,13.6-13.6c7.3-0.5,14.6,0,21.9-0.2c2.5-0.1,6.5,1.1,6.8-2.5c0.3-3.7-3.9-3.7-6.7-3.9c-6.5-0.5-13,0-19.4-0.2
		c-6.9-0.2-10.3-2.9-11.2-8.6c-1.4-9.9,0.5-15,7.3-17.1c4.7-1.4,7.6-3.6,8.3-8.7c0.7-5.1,4.8-6.8,9.4-7.7c8.1-1.6,16.2-1.6,24.3-1.3
		c5.5,0.2,8.5-1.7,9.6-7.4c1.2-6.3,4.2-8.1,11.8-9c2.6-0.3,7,0.8,6.6-3.5c-0.3-3.4-4.4-3-7.3-3.1c-2.5-0.1-5,0-7.5-0.1
		c-5.3-0.2-8.5-2.8-10-7.9c-2.2-7.5-3.4-8.3-11-8.4c-1.5,0-2.9,0-4.4-0.1c-7.7-0.5-11.9-4.5-12.3-11.5c-0.6-10.4,1.9-14.1,10.8-15.7
		c0.8-0.2-0.2,0.2,0.6-0.1c2.2-0.8,5.8-0.3,5.4-3.8c-0.3-2.7-3.4-2.6-5.7-2.6c-6.5-0.1-13,0-19.4,0c-11.3,0-22.6,0.3-33.9-0.1
		c-11-0.5-15.8-6.5-14.1-16.7C179.7,12.8,180.6,10.6,183.2,9.5z"/>
	<path class="st0" d="M436.8,154.9c0,29.5-0.2,59,0.1,88.4c0.1,8,1.4,16,9.4,20.7c3.9,2.3,8.4,1.4,12.5,2.3c4.8,1,4.1,4.3,4.4,7.5
		c0.4,3.6-1.6,5.1-4.6,5.2c-14.8,0.1-29.7,0.6-44.5-0.1c-11.4-0.6-17.5-8-21.6-18.7c-2.4-6.4-2-12.3-2.1-18.5
		c-0.1-58.5,0-117.1-0.2-175.6c0-5.7,1.5-7,6.9-6.8c11.3,0.4,22.6,0.4,33.9,0c4.6-0.1,6,1,5.9,5.8C436.7,95.1,436.8,125,436.8,154.9
		z"/>
	<path class="st0" d="M530.9,182.4c0,29.9-0.1,59.8,0.1,89.7c0,5.5-1.4,7.4-7.1,7.2c-10.9-0.4-21.8-0.4-32.6,0c-5,0.2-5.7-1.6-5.7-6
		c0.1-56.1,0.2-112.1-0.1-168.2c0-8.1-1.1-16.3-4-24.2c-2.6-7.3-8.3-7.9-14-8.7c-7.7-1.1-8.7-2.1-8.3-9.3c0.2-2.9,1.4-3.4,3.9-3.4
		c14.8,0.1,29.7-0.2,44.5,0.1c9.1,0.2,16.8,6.8,19.7,15.7c2.2,6.9,3.7,13.8,3.6,21.2C530.8,125,530.9,153.7,530.9,182.4z"/>
	<path class="st1" d="M277.3,183.7c2.7-6.8,8.5-6.2,14.2-6c3.4,0.1,5.7-0.9,7.6-4.1c1.9-3.3,0.3-5.4-0.9-8c-1.1-2.7-3.6-2.7-5.6-2.8
		c-9-0.4-11.3,2.2-14.8-10.4c-0.8-2.8-1.8-5-5.1-5.2c-2.1-1.3-4.6,0.2-6.6-1.1c-5,0-8.5-2.5-11.3-6.3c-0.8-2.1-0.8-4.2,0-6.3
		c3.6-6.4,9.3-8.3,16.2-7.3c7.1,1.1,11.4-0.9,12-8.9c0.2-3.5,3.1-5.9,6.8-6.1c5.6-0.3,8.1-3.9,9-8.6c1.1-5.1,3.9-8,8.7-9.3
		c2.5-1,5-0.8,7.6-0.1c1.2,0,2.5,0,3.7,0c1.5,9.9,3.9,19.7,5.2,29.7c1,7.8,8.8,12,14.3,17.3c6.1,5.8,11.9,11.9,17.2,18.4
		c3.5,4.3,0.6,10.5-5,12.3c-10.7,3.5-11.5,5.9-5.1,14.9c3.7,5.2,3.3,9.3-1.3,13.7c-3.2,3-5.4,5.7-0.3,9.4c3.9,2.9,4.2,7.3,1,11
		c-4.1,4.6-4.6,9.3-2.3,14.9c2,4.8,2.8,10,3.7,15c2,10.5-8,28.1-22.6,28.1c-4.6,0-9.2,0.1-13.8,0c-9.2-0.2-24.5,8.7-27,18.9
		c-1,0.6-2,0.9-3.1,0.9c-7.6-0.9-15.2-0.2-22.8-0.5c-4.4-0.2-7.9-1.8-9.3-6.3c-0.5-2.1-0.5-4.3-0.3-6.4c0.7-3.8,2.9-6.4,6.5-7.7
		c1.7-0.5,3.4-0.5,5.2-0.5c3.5-0.1,7.2-0.4,10.6,0.1c8.3,1.2,13.5-2.4,17-9.7c2.5-5.2,6.4-8.8,12.5-9.2c4.2-0.2,8.3,0.5,12.5-0.5
		c4.6-3.6,4.3-5.1-1.9-8.3c-8.5-0.7-17.1-0.1-25.6-0.3c-7.2-2.1-10.7-10.8-6.8-17.1c1.2-2,2.8-3.7,5.5-2.2c2.9,0,5.8,0,8.7-0.1
		c3.8-1.5,7.8,0.4,11.6-1.1c4.8-0.7,5.3-4.9,6-8.2c1.3-6.5,5.1-9.1,11.2-9.2c3.8-0.1,7.2-1.2,7.8-5.3c0.7-4.3-1.5-7.1-6-7.6
		c-6.8-1.2-13.7-0.2-20.5-0.6c-4.6-0.3-9.3,0.7-13.8-0.6c-4.2,0-7.2-2.3-10-5C276.5,188.7,276.5,186.2,277.3,183.7z"/>
	<path class="st2" d="M155.8,48.2c1.2-3.3,4.1-3.7,7-4.2c5.1-0.9,7.7-4,7.3-9.1c-0.5-5-3.5-8-8.6-8.1c-8.5-0.2-17-0.1-25.5-0.1
		c-4,0-7.4-0.8-9-5c0.6-2-0.4-1.9-0.9-3.9c0.6-2.3,1.6-7.6,2.7-6c-5.9-2.1,38.5-2.3,41.7-1.6c6.3,1.3-11.9,0.8-5.4,0.5
		c0.8,0.3,6.5-0.5,7.2-0.6c2,1.2-1,2.7-1.3,4.3c-1.6,8-0.7,9.5,7.2,10.9c1,0.2,2,0.4,2.9,1c4.2,5.5,10.6,4.4,16.3,5.2
		c0.5,0.3,1.3,0.6,1.4,1.2c2.2,9.1,8.8,10.6,16.8,9.9c2.1-0.2,4.2-0.1,6.2,0.2c5.7,0.8,9.2,4.3,9.3,9.2c0.1,4.5-3.7,9-8.8,10
		c-2.9,0.6-5.8,0.3-8.7,0.4c-2.1,0-4.2,0-6.1,0.9c-2.6,1.3-4.5,3.2-4.2,6.3c0.3,3.2,2.5,4.7,5.4,5.2c3.5,0.7,7.1,0.2,10.6,0.5
		c6.7,0.5,10.4,3.2,12.1,9.8c1.2,4.8,4.5,6.6,8.7,7.9c6.9,2.3,8.6,6.1,6.3,12.9c-6.6,2-14.1,0.5-19.7,5.9c-5,0.6-10.3,3.3-14.4-2.1
		c5.2-7.7,4.4-11.4-3.8-16.1c-0.9-1.3-2.2-0.9-3.4-0.9c-19.4,0-38.7,0-58.1,0c-0.8,0-1.7,0.1-2.4,0.5c-2.9-0.4-4.6-1.9-5.1-4.8
		c0.8-1.7-0.3-3.4,0-5c1.4-5.1,5.6-5.7,9.8-5.8c7.1-0.1,14.2,0,21.3,0c6.4,0,10.2-3.2,10.2-8.4c0.1-5.2-3.7-8.5-9.9-8.9
		c-4.5-0.3-9.3,1-13.3-2.1c-0.8-0.6-1.1-1.6-1.7-2.4C155.9,53.2,155.7,50.7,155.8,48.2z"/>
	<path class="st3" d="M220.7,196.5c-2.8-1.7-5.8-1.8-9-1.8c-23.6,0-47.2-0.1-70.8-0.2c-1.8,0-3.8,0.5-5.5-0.6
		c1.3-1.7,3.2-1.9,5.1-1.9c10.2-0.2,20.4-0.2,30.6,0c1.7,0,3.4,0.2,4.2,1.3c-1.5-1.5-3.3-3.4-3.9-6.1c-1.1-5-4.5-6.5-9.2-6.5
		c-3.5,0-7.1,0.2-10.6-0.7c-5.3-1.4-8.7-5.5-8.6-10.2c0.1-4.6,3.7-8.6,8.9-9.9c1.8-0.5,3.7-0.5,5.6-0.5c14.2,0,28.3,0,42.5,0
		c2.3,0,4.6,0,6.7,1.2c1.2,3.2-0.3,6.4-0.2,9.6c0.3,8.4,4.5,12.9,13.1,13.1c6.9,0.1,13.8,0.3,20.7-0.1c4.8-0.2,7,1.9,7.7,6.2
		c1,6.3,3.9,10.3,11,10.3c3.8,0,5.7,2.7,6.6,6.3c2.3,8.6,3.1,9.2,11.7,9.9c3.7,0.3,5.7,1.9,6,5.7c0.3,4.4-2.4,5.3-5.9,5.4
		c-5.4,0.2-10.9,0-16.3,0.1c-4,0-6.6,1.6-8.3,5.4c-4.7,10.9-12.2,13.7-24.3,9.4c-2.3-10.8-2.6-11-14.1-11c-3.6,0-7.1,0.2-10.7-0.1
		c-7.8-0.7-11.7-4.8-11.1-12.7c0.3-4-1.9-3.5-4.1-3.5c-12.3,0-24.7,0-37-0.1c-2.9,0-5.9,0.6-8.3-1.8c2.1-1.6,4.4-0.9,6.7-0.9
		c20.9,0,41.8,0,62.7,0c3,0,5.8-0.1,8.4-1.8c2.5-0.1,5,0,7.4-0.3c3.5-0.4,5.8-2.2,5.9-6c0.1-3.6-1.8-5.9-5.3-6.6
		C226.1,196.4,223.4,196.7,220.7,196.5z"/>
	<path class="st0" d="M228.5,241.5c2.9,0,5.9,0,8.8,0c10.1,0,10.7-0.5,13.9-10.5c1.4-4.5,4.5-6.7,10.3-5.6c5,0.9,10.1,0.6,15.1-0.3
		c2.1-0.3,5.5,1.3,5.8-2.7c0.3-3.2-1.3-6.1-4.2-5.9c-8.8,0.7-12.4-3.6-13.7-11.7c-0.4-2.7-3.1-5-6.5-4.9c-6.4,0.2-9.7-3.5-10.5-9.3
		c-0.8-5.4-3.4-7.5-8.8-7.1c-5.2,0.4-10.5-0.1-15.7,0.1c-16.1,0.7-19.8-7.3-15.9-22.6c0.3-6.1,5.6-5.1,9.2-6.5
		c9.5-1,19.1,0.5,28.6-1.8c-9.2-4.3-19.1-1.3-28.6-2.9c-2.9-0.8-5-2.7-6.4-5.3c-1.4-4.7-0.9-9.5-0.6-14.2c0.2-3.1,1.6-6.2,4.5-7
		c6.9-1.8,10.5-6.6,13.4-12.5c5.4-5,12.4-3.8,18.8-5.1c3.7-2.7,8.1-1.7,12.1-1.6c5.6,0.1,9.2-1.6,10.3-7.6c0.9-5.2,4.6-7.6,9.6-8.5
		c2.5-0.4,5.4,0.2,8-2.2c-3.6-2.8-7.4-2-11-2.1c-8.6-0.3-10.5-1.3-13.3-9.4c-1.7-4.8-4.9-7-9.9-6.9c-2.5,0-5,0.1-7.5-0.4
		c-6-1.2-9.5-5-10-11.1c-0.2-2.3-0.2-4.6,0-6.9c0.4-6.9,2.8-9.7,9.4-11.4c1.9-0.5,4.2-0.2,5.6-2.4c-1.9-2.4-4.5-1.7-6.9-1.7
		c-12.3-0.1-24.6,0-36.9,0c-2.9,0-5.9,0.1-8.4-1.8c-5.8-0.5-12.1,0.7-16.4-5c-4.7-4.1-2.8-9.1-2.1-14.2c-2.4-1-5.6,0.1-7.9-2.1
		l0.6-0.1l6.1,0.1c-10.1,0.9-7.8-0.9,3.9-0.9c5.6,0,0.9,1,0.9,1c16.7,0-10.6-0.4,1.2-1.2c-0.8,1.9-2,3.8-2.4,5.7
		c-1.8,10.2,2.5,15.2,13.3,15.3c16.9,0.2,33.9,0,50.8,0c1.5,0,2.9,0,4.4,0c3.1,0,5.6,2,6.1,4.5c0.6,3-2.4,3.9-4.9,4.5
		c-0.8,0.2-1.6,0.6-2.4,0.8c-10.6,2-11,2.5-10.9,13.4c0.1,6.7,3.6,10.3,10.3,10.6c2.3,0.1,4.6,0.2,6.9,0c6.3-0.5,9.4,3.2,10.3,8.6
		c0.9,5.7,3.8,7.8,9.3,7.8c4.3,0,8.7-0.8,13,0.8c2,0.8,4,1.3,4.1,3.9c0.1,3-2.2,4.7-4.2,4.6c-10-0.5-16.1,3.1-17.5,13.7
		c-0.4,2.9-3.8,3.3-6.8,3.2c-8.7,0-17.5-0.3-26.2,1.1c-5.2,0.9-8.9,2.9-9,8.3c-0.1,5.3-3.4,6.8-7.4,7.7c-9.9,2.3-8,6.6-7.7,16.1
		c0.2,6.4,5.3,7,10.6,6.8c5.4-0.2,10.9,0,16.3,0c2.1,0,4.1,0.1,6.2,0.8c2.6,0.9,5.7,1.8,5.4,5.1c-0.4,3.5-3.4,4.1-6.6,4.2
		c-9.6,0.4-19.2-0.9-28.7,0.7c-5.5,0.9-7.9,3.9-8.2,9.2c-0.5,8.1,1.4,11.9,7.4,14c6.9,2.4,14.1,0.8,21.1,1.1
		c11.2,0.5,10.5-2.1,13.8,9.7c1.3,4.6,4.4,6.5,8.7,6.6c4.7,0.2,7.1,2.5,8.1,7c1.2,5.8,3.8,9.8,10.9,9.5c5.7-0.3,7.7,2.8,6.6,8.2
		c-0.4,1.8-0.9,3.6-1.3,5.5c-5.6,1.3-5.2,5.6-4.9,9.8c0.3,3.9,1.1,7.5,6,7.8c7,1.3,14.1,0.2,21.1,0.6c2.3,0.1,4.6-0.4,6.8,0.4
		c4,0.2,4.6,3.4,5,6.3c0.4,2.6-1,4.2-3.9,4.1c-4.6,1.3-9.4-0.5-14,1c-4.4,0.1-8.1,2.5-9.4,6.1c-4.2,11.5-12.3,15-23.6,13.1
		c-2.2-0.4-4.6-0.2-6.8-0.3c-0.6-0.6-1.1-1.3-1.1-2.2c0.1-7.2,0.1-7.2-7.2-7.3c-10.4-0.1-20.8,0-31.3,0c-5.4,0-10.7-0.7-13.2-6.3
		c-2.7-6-3.3-12.1,1.3-17.7C213.9,240.3,221.1,240.4,228.5,241.5z"/>
	<path class="st2" d="M228.5,241.5c-5.5,2.6-11.8,0.3-17.3,2.6c-0.9,0.4-1.8,0.8-2.7,1.2c-2.6,1.7-5.5,1.7-8.4,1.7
		c-4.6,0.1-9.2-0.4-13.7,0.3c-3.5,0.6-6.6,2.1-6.8,6.1c-0.3,4,2.5,5.9,6,7c1.2,0.4,2.4,0.6,3.7,0.7c5,0.4,8.1,3.2,9.3,7.9
		c1.5,6,5.3,8.3,11.3,8.6c8.8,0.5,12.6,5.9,10.3,13.6c-5.5,3.9-11.6,2.3-17.5,1.7c-4.1-1.2-0.9-5.3-2.9-7.3
		c-2.2-5.1-5.8-7.6-11.7-7.3c-5.6,0.4-8.9-2.6-9.6-8.4c-0.7-5.7-4-8.4-9.7-8.3c-4.6,0.1-9.2,0.1-13.8,0c-4.5-0.1-7.5-2.7-8.3-6.8
		c-0.8-3.9,0.7-7.4,5.3-8.4c3.6,1.7,7.5,0.1,9.4,0.6c-1.9-0.3-5.8,1-9.5-0.5c2.9-1.8,6.1-1,9.1-0.9c5.4,0.1,10.2-0.9,11.8-6.8
		c1.5-5.8-2.5-8.6-6.9-10.9c-7.6,0.1-14.8,0.1-22.5-0.3c-4.5-0.4-6.4-3.5-6.5-7.4c-0.1-4.1,3.2-7.6,7.5-8.3
		c17.8-0.8,34.4-0.8,52.3,0c-2.1,4.5-4.9,9.4-0.9,13.7c2.3,2.4,5,3.5,8.4,3.5c5.2-0.1,10.5-0.1,15.7,0
		C228.2,229,231.2,233.3,228.5,241.5z"/>
	<path class="st2" d="M211,144.7c1.6,1.3,3.2,2.6,4.9,3.9c2.6,2.5,3.7,4.9,0.1,7.4c-2.8,2-7.3,0.9-8.8,5c-16.5,0-32.9,0-49.4,0
		c-1.5,0-3-0.2-4.4,0.1c-4.8,1-8.9,3-8.9,8.7c0,5.7,4.1,8,8.9,8.6c3.7,0.5,7.5,0.3,11.2,0.1c4.9-0.3,7.6,2.3,8.4,6.6
		c0.5,2.9,1.5,6.2,4.3,9.4c-14.4,0.7-27.8,0.5-41.3-0.2c-4.7-0.2-7.1-3.8-7.6-7.9c-0.8-6.4-4.5-9-10.7-8.9c-6.7,0.1-13.4,0-20.1,0
		c-4.5,0-7.8-1.7-8.8-6.3c-1-4.5,0.8-7.7,5.5-9c14.5,0.7,29,1.3,43.5-0.4c5-1.5,8.1-4.4,8.6-10c0.5-5.2,4.1-7.4,9.1-7.4
		c6.6,0,13.3-0.3,19.9,0.1c5.5,0.3,9.1-1.8,11.5-6.5c1.1-3.9,1.1-3.9-1.3-7.1c-0.4-0.5-0.8-0.9-1.3-1.4c2.8-3.2,5.6-3,8.5,0.7
		C197.1,135.8,205.6,142.5,211,144.7z"/>
	<path class="st0" d="M200.9,291.8c6.2-0.8,12.6,1.5,18.6-1.5c1.8-3,3.9-5.9,4.8-9.4c1.4-5.4,5.1-7.9,10.3-8.3
		c5.2-0.5,10.4-0.6,15.5,0c2.9,0.4,5.5,1.4,3.2,5.3c-1.8,1.9-4.4,3.3-4.9,6.3c-1,2.1-0.8,4.1-0.1,6.2c1.5,3.2,4.1,4.8,7.6,5.1
		c8,1.7,16.2-0.4,24.2,1.1c0.8,0,1.6,0.1,2.4,0.1c-2,2.6-0.8,5.8-1.5,8.6c-0.9,3.9-2,7.7-7.3,7.7c-32.2-0.1-64.4-0.2-96.6-0.3
		c1.8-4.1,5.5-2.6,8.5-2.7c9-0.3,9-0.2,9.5-9.2c0.1-2.4,0-5,2.1-6.8c0.1-0.4,0.3-0.6,0.7-0.5c0.1-1.3,1.2-1.4,2.1-1.7
		C200.4,291.7,200.7,291.8,200.9,291.8z"/>
	<path class="st4" d="M211,144.7c-2.1,0-4.2,0.1-6.2,0.1c-7.2-0.1-9.9-2.4-11.4-9.6c-1.2-5.5-4-7.2-8.9-5.3
		c-2.9-2.3-6.4-2.4-9.9-2.6c-6.6-4.9-6.9-9.4-0.9-14.4c0.7-0.1,1.4-0.1,2.2-0.1c9.5,0,19.1,0,28.6,0c0.4,0,0.7,0.3,1,0.1
		c-10.3-0.2-20.6-0.2-30.9-0.2c-6.9,1.7-13.9,1.4-20.8,0.7c-0.8-0.3-1.4-0.7-1.9-1.4c12.6-1.8,25.4-0.3,38-1
		c7.4-0.4,15,1.3,22.3-1.4c4.8,2.5,10,0.6,15,1.2c-0.5,7.2-3,12.4-11.5,13.1c-2.9,0.2-4.9,3.4-4.8,7.1
		C211.1,135.6,211,140.2,211,144.7z"/>
	<path class="st5" d="M129.3,279.3c4.2,1.3,6.1,4.4,5.4,8.5c-0.8,4.4-4,6.9-8.4,7c-12.9,0.2-25.8,0.1-38.7,0c-4.4,0-7.7-2.4-8.6-6.8
		c-0.8-4.1,1-7.3,5.2-8.6C99.2,280,114.3,280.1,129.3,279.3z"/>
	<path class="st2" d="M123,112.2c5.9,3.9,6.5,6.5,2.5,12.3c-3.1,1.2-6.4,1.5-9.7,1.5c-13.1-0.1-26.1-0.1-39.2,0
		c-6.5-4.8-6-10.7,1.2-14C92.9,112.4,108,112.1,123,112.2z"/>
	<path class="st6" d="M61.3,142.3c-0.9,2.5-3.2,3.6-5.3,3.7c-8.5,0.3-17,0.4-25.5,0c-4.1-0.2-7-3.3-7.3-7.3
		c-0.3-3.6,1.3-6.9,5.5-7.8c5.9,1.8,11.9,1.4,17.9,0.8c2.5-0.3,4.5-0.1,6.8,0.1c-8.2-0.7-16.5,0.9-24.7-0.9
		c9.2-1.9,18.5-0.8,27.7-0.6c2,0,3.9,1.2,4.9,3.4C61.5,136.5,61.5,139.4,61.3,142.3z"/>
	<path class="st7" d="M197.4,294c-0.1,3.7-0.6,7.5-0.2,11.2c0.7,5.8-1.8,7.1-7.1,6.8c-4.2-0.2-8.6-1.1-12.8,0.7
		c-8.5-0.1-17.1,1.4-25.6-0.8c3.6-3.1,7.8-1.4,11.8-1.8c2.6-0.3,5.3,0.3,8.2-0.4c-0.8-4.3-2.4-9,2.6-12c0.6-0.2,1.3-0.3,2-0.3
		c4.5,0,8-0.1,12.4-0.3c0.8-0.2,0.6-1.2,1.1-0.5c0.2,0.3,0,0.5-0.4,0.5c-3.4,0.2-24.1,0.9-13.7-0.4
		C181.7,294.9,191.6,297.1,197.4,294z"/>
	<path class="st5" d="M174.6,298c-3.3,4.4-3.2,8.8,1.5,13.9c-9.1,1.1-16.9,1.2-24.3,0c-3.8-1.6-6.1-4.5-5.4-8.7
		c0.6-3.7,2.5-6.6,6.9-6.5c4.9,1.4,9.8,0.2,14.7,0.7C170.1,297.5,172.5,296.7,174.6,298z"/>
	<path class="st2" d="M173.3,113.5c-3.9,5-2.3,9.6,1.3,13.9c-6.4,0.1-12.9,0.3-19.3,0.2c-4.4,0-7.7-1.9-8.7-6.4
		c-1-4.5,0.7-7.7,5.3-9c0.6,0.1,1.1,0.3,1.7,0.4C160,113.6,177.9,111.6,173.3,113.5z"/>
	<path class="st8" d="M105.4,220.3c-0.2-4.7,3.8-8.5,8.8-8.5c5-0.1,9.3,3.6,9.1,8.2c-0.3,5.2-3.3,7.8-8.5,7.9
		C109.3,228.1,105.6,225.1,105.4,220.3z"/>
	<path class="st9" d="M53,166.2c2.1-4.9,6.3-4.7,10.6-4.1c3.6,0.5,5.4,3,6.2,6.2c0.8,3.2-0.7,5.7-3.1,7.7
		c-4.4,3.6-10.7,1.9-13.9-3.6C53.4,170.4,52.8,168.3,53,166.2z"/>
	<path class="st8" d="M108.1,49.5c1-4.3,4.3-5.3,8.1-5.3c3.7,0,7.1,0.9,8.1,5.3c-0.3,2.1-0.7,4.1-0.2,6.2c-4.9,6.6-12.5,6.1-16-1.2
		C108.5,52.8,109,51.1,108.1,49.5z"/>
	<path class="st2" d="M220.7,196.5c3.4-2.7,7.1-1.9,10.6-0.6c4.2,1.6,5.2,5.3,4.6,9.3c-0.7,3.9-3.3,6.3-7.5,6.1
		c-2.6-0.1-5.5,1.2-7.6-1.4C224.5,205.4,224.4,201,220.7,196.5z"/>
	<path class="st2" d="M76.6,126c1.8-2.1,4.3-1.3,6.5-1.3c11.5-0.1,23-0.4,34.5,0.2c2.8,0.1,5.3-3.2,8-0.4c-1.2,2.1-3.3,2.6-5.4,2.6
		c-13.6,0.1-27.1,0.1-40.7,0C78.5,127.2,77.5,126.4,76.6,126z"/>
	<path class="st2" d="M123,112.2c-1,1.3-2.5,1.2-4,1.2c-12.2,0-24.5,0-36.7,0c-1.6,0-3.4,0.3-4.5-1.4
		C92.9,110.9,108,110.5,123,112.2z"/>
	<path class="st2" d="M144.4,93.2c1.3-1.4,3.1-1.1,4.7-1.1c18.1,0,36.1,0,54.2,0c1.8,0,3.8-0.6,5,1.5
		C187,93.5,165.7,93.3,144.4,93.2z"/>
	<path class="st5" d="M129.3,279.3c-3,2.1-6.5,1.1-9.7,1c-11.8-0.4-23.6,1.3-35.3-0.9C99.2,278.3,114.2,278.5,129.3,279.3z"/>
	<path class="st6" d="M137.7,162.2c0.7,1,0.4,1.5-0.7,1.5c-13.5,0-27.1,0-40.6-0.1c-0.7,0-1.4-0.7-2.2-1
		C108.7,161.2,123.2,161.9,137.7,162.2z"/>
	<path class="st2" d="M143.1,227.5c7.5-1.7,15-2.2,22.5,0.3C158.2,227.7,150.7,227.6,143.1,227.5z"/>
	<path class="st5" d="M174.6,298c-7.1-0.8-14.4,1.4-21.4-1.3c7.5-0.7,15.1-0.5,22.6-0.1c0.4,0.3,0.5,0.6,0.4,0.9
		c-0.1,0.3-0.3,0.4-0.4,0.4C175.3,297.9,175,298,174.6,298z"/>
	<path class="st6" d="M61.3,142.3c-1.6-2.9-1.6-5.8,0-8.7C63.5,136.5,63.6,139.4,61.3,142.3z"/>
	<path class="st2" d="M185.7,131.3c5.4,1.7,1.8,5.5,2.1,8.4c-0.1-0.1-0.4-0.1-0.4-0.3c-0.2-0.4-0.2-0.8-0.4-1.1
		C187.1,135.9,186.5,133.6,185.7,131.3z"/>
	<path class="st2" d="M155.8,48.2c1.6,2.5,1.7,5-0.1,7.5C153.9,53.2,154.1,50.7,155.8,48.2z"/>
	<path class="st9" d="M53,166.2c1.5,2.1,1.7,4.2-0.3,6.2C51.4,170.3,51.7,168.2,53,166.2z"/>
	<path class="st2" d="M139.3,83.3c1.8,1.7,1.8,3.4,0,5C138.3,86.7,138.2,85,139.3,83.3z"/>
	<path class="st2" d="M199.5,285.6c0.4-0.4,0.5-2.7,1.2-0.5c0.6,2,0.2,4.4,0.2,6.7c0,0,0,0,0,0c-2.4,0-1.9-1.5-1.5-3
		C199.5,287.7,199.5,286.6,199.5,285.6z"/>
	<path class="st8" d="M124,55.7c-1.4-2.1-1.6-4.2,0.2-6.2C125.7,51.6,125.1,53.6,124,55.7z"/>
	<path class="st2" d="M127,15.6c1.5,2.1,1.6,4.1-0.1,6.2C125.8,19.7,125.8,17.7,127,15.6z"/>
	<path class="st2" d="M199.5,288.8c0.2,1.1,0.3,2.3,1.5,3c-1,0.6-1.9,1.1-2.9,1.7C197.2,291.5,198.5,290.2,199.5,288.8z"/>
	<path class="st8" d="M108.1,49.5c1.6,1.7,1.6,3.3-0.1,5C107.1,52.8,107.3,51.1,108.1,49.5z"/>
	<g>
		<path class="st0" d="M863.5,185.9c0-8.6-1.7-17-3.6-25.1c-5.6-22.9-30.3-42-53.7-42.2c-14.5-0.1-29.1-1.5-43.3,2.5
			c-7.9,2.2-15,4.8-20.7,12.1c-5.2,6.7-5.2,14.1-6.4,21.3c-1.8,11.7-1.1,11.8,10.7,11.8c9.9,0,9.9,0,12.5-9.3
			c2.4-8.7,7-15.1,16-18.6c16.7-6.5,32.5,0.3,38.5,17c2.8,7.8,2.1,16,3.9,23.7c1.9,8.4-2.2,7.6-7.4,7.3c-21.6-0.9-42.8,1-62.9,10
			c-8.1,3.7-14.8,9.8-18.4,17.3c-4.6,9.7-5.2,20.5-3.6,31.6c2.3,15.8,11.3,25.5,25.2,31.3c12,5,24.5,7,37.8,5.3
			c13.5-1.8,24.8-6.5,33.4-17.7c0.8,0.9,1.3,1.3,1.6,1.8c5.3,9,11.8,15.6,23.6,13.2c3.4-0.7,7.1-0.4,10.6,0c4.7,0.5,6.4-0.9,6.3-6
			C863.3,244.1,863.4,215,863.5,185.9z M819.2,227.5c0.1,7.8-0.5,15.4-4.9,22.1c-3.7,5.6-9.1,9.6-15.3,12
			c-6.3,2.4-14.1,2.5-19.9-1.4c-5.3-3.6-5.9-10.5-7-16.3c-1.5-7.5-2-19.4,3.2-26.2c2.1-4.5,6.4-7.5,11.3-9.6
			c6.1-2.6,12.6-4.9,19.1-5.7c5.8-0.7,11.1,0.7,12.7,6.8C819.9,215.2,819.1,221.4,819.2,227.5z"/>
	</g>
	<path class="st0" d="M301.3,196.3c6.8,0.2,13.8-1.9,20.4,1.1c-6.8,0-13.7,0-20.5,0c-0.4-0.3-0.5-0.5-0.4-0.8
		C301,196.4,301.1,196.3,301.3,196.3z"/>
	<path class="st0" d="M301.3,196.3c0,0.4,0,0.7,0,1.1c-4.6-0.4-9.4,1.4-13.9-1.1C292,196.3,296.6,196.3,301.3,196.3z"/>
	<path class="st0" d="M315,93.2c-2.5,0-5,0.1-7.6,0.1C310,91.5,312.5,91.5,315,93.2z"/>
	<path d="M277.3,183.7c0,2.5,0,5,0,7.6"/>
	<path class="st0" d="M272.7,147.2c-2.2,0.1-4.7,0.8-6.6-1.1"/>
	<path d="M254.8,133.5c0,2.1,0,4.2,0,6.3"/>
	<path class="st4" d="M253.4,277.9c0-1.7,0.3-3.7-2.2-3.6c-6.4,0.2-12.9-0.8-19.3,0.6c-3.6,0.8-5.7,3-5.8,6.4
		c-0.2,4.7-3.1,7-6.5,9.1c0-7.9-3.1-11.1-10.7-11.2c-8.2-0.1-10.1-1.7-12-9.4c-1-4.2-3.1-7.3-8.1-6.9c-1.2,0.1-2.5-0.1-3.7-0.4
		c-5.1-1.1-8.5-4.1-7.9-9.5c0.6-5,4.6-7.3,9.3-7.5c7.3-0.3,14.6-0.1,21.9,0c-4.2,5.3-3.2,11.1-0.8,16.5c2.2,5.1,7.3,4.7,12,4.7
		c11.1-0.1,22.2,0,33.3,0c1.7,0,3.5-0.2,5,0.4c3,1.1,6.5,2.4,2.4,6.3c-1.4,1.3-1.6,2.9-1.3,4.6C257,277.9,255.2,277.9,253.4,277.9z"
		/>
	<path class="st0" d="M280.2,296.6c-8.1-0.5-16.3,1.6-24.2-1.1C264.1,295.7,272.3,293.7,280.2,296.6z"/>
	<path class="st3" d="M197.1,31.9c16.1,0,32.1,0,48.2,0c1.8,0,3.8-0.4,5.5,0.7c1.2,0.8,2.6,1.7,2.3,3.4c-0.2,1.4-1.4,1.9-2.7,2.2
		c-1.4,0.4-2.8,1-4.2,1.2c-9.9,1.5-11.2,3.7-10.2,17.7c0.4,5.7,4.5,8.6,12.1,8.7c11.1,0.1,11,0.1,15.8,11.6c1.4,3.3,4.1,4.9,8,4.8
		c4.9-0.1,10-0.9,14.8,1.1c1.2,0.5,2.5,0.9,2.7,2.3c0.3,1.8-1.2,3-2.6,3c-10.3,0.2-17.7,3.5-19.4,15.1c-0.3,2.3-3.5,2.5-5.9,2.4
		c-5.2-0.1-10.4-0.1-15.7-0.1c0.7-6.5-1-10.8-8.6-11.6c-3.9-0.4-7.1-3.1-7.7-7.9c-0.7-6.1-4.1-9.1-10.3-9.3
		c-3.5-0.1-7.1,0.1-10.6-0.1c-4.9-0.3-7.9-3.1-7.8-8c0.2-4.7,3.3-7.6,7.9-8.1c3.7-0.4,7.5,0,11.3-0.1c5-0.1,9.4-3.8,9.5-8
		c0.2-5.1-3.3-8.2-9.5-8.4c-1.7-0.1-3.3,0-5,0C201.3,44.4,201.3,44.4,197.1,31.9z"/>
	<path class="st10" d="M170.7,10.6c0.8,0,1.6,0,2.4-0.1c5.5-0.9,7.4,1.3,6.5,6.8c-0.5,3.1-0.6,6.6,1,9.6
		C168,26.8,165.7,23,170.7,10.6z"/>
	<ellipse class="st2" cx="147.6" cy="25" rx="20.2" ry="0.4"/>
	<path class="st3" d="M215.9,156.1c2-2.5,0.5-5-0.1-7.4c7.7,0,15.4,0,23.2-0.2c2.2,0,4.1,0.6,6.1,1.2c1.9,0.5,4.1,1.5,3.8,3.4
		c-0.3,2.2-2.5,3-4.9,3C234.7,156.1,225.3,156.1,215.9,156.1z"/>
	<path class="st2" d="M151.8,246.4c4.1,0,8.2,0,12.3,0C160,247.1,155.8,249.2,151.8,246.4C151.8,246.4,151.8,246.4,151.8,246.4z"/>
	<path class="st4" d="M174.2,112.5c10.8,0,21.7,0,32.5,0c0,0.3,0,0.6,0,0.9c-10.8,0-21.6,0-32.4,0L174,113L174.2,112.5z"/>
	<path class="st6" d="M28.7,130.9c8.7,0,17.5,0,26.2,0C46.2,131.4,37.4,134,28.7,130.9C28.7,130.9,28.7,130.9,28.7,130.9z"/>
</g>
</svg>
