<?xml version="1.0" standalone="no"?>
<!DOCTYPE svg PUBLIC "-//W3C//DTD SVG 20010904//EN"
 "http://www.w3.org/TR/2001/REC-SVG-20010904/DTD/svg10.dtd">
<svg version="1.0" xmlns="http://www.w3.org/2000/svg"
 width="256.000000pt" height="256.000000pt" viewBox="0 0 256.000000 256.000000"
 preserveAspectRatio="xMidYMid meet">
<metadata>
Created by potrace 1.11, written by Peter Selinger 2001-2013
</metadata>
<g transform="translate(0.000000,256.000000) scale(0.100000,-0.100000)"
fill="#000000" stroke="none">
<path d="M865 2440 c-11 -4 -24 -5 -29 -2 -5 3 -6 0 -2 -6 4 -7 1 -12 -7 -12
-16 0 -39 -44 -29 -55 4 -4 7 -10 7 -14 0 -10 28 -35 41 -38 6 -1 66 -3 132
-4 105 -1 123 -4 138 -20 35 -39 12 -108 -36 -109 -26 0 -57 -28 -62 -54 -5
-23 20 -64 40 -67 4 -1 33 -2 66 -4 65 -3 83 -16 89 -60 6 -46 -22 -69 -88
-70 -30 -1 -58 -4 -61 -8 -4 -3 -14 -3 -23 2 -20 9 -82 8 -98 -2 -7 -5 -13 -5
-13 -2 0 15 -30 -25 -32 -42 -6 -74 10 -78 292 -77 226 1 264 -3 282 -30 13
-19 9 -53 -10 -76 -17 -21 -23 -22 -242 -23 -222 -1 -225 -2 -247 -25 -34 -34
-18 -88 28 -98 36 -8 90 -10 94 -4 2 3 33 3 68 0 78 -6 107 -26 99 -68 -10
-52 -34 -62 -156 -62 -126 -1 -144 -8 -153 -64 -7 -44 -42 -67 -97 -62 -21 1
-39 -1 -42 -6 -3 -5 -10 -5 -17 -1 -16 10 -58 10 -63 1 -3 -5 -10 -5 -17 -1
-16 10 -58 10 -63 1 -3 -5 -10 -5 -17 -1 -15 9 -57 10 -57 1 0 -4 -6 -5 -13
-2 -22 8 -51 -22 -53 -55 -3 -52 28 -65 158 -66 119 -2 135 -8 144 -61 11 -64
6 -64 361 -65 319 0 322 -1 346 -23 19 -17 23 -30 19 -55 -2 -17 -7 -30 -10
-27 -3 3 -10 -2 -17 -10 -10 -14 -47 -16 -303 -17 l-292 0 -24 -24 c-21 -21
-23 -28 -14 -54 5 -16 15 -32 21 -36 7 -4 50 -8 97 -10 47 -1 93 -2 102 -2 25
-1 58 -41 53 -65 -2 -12 -4 -24 -4 -29 -2 -15 -65 -46 -80 -38 -18 8 -46 7
-77 -3 -29 -9 -49 -58 -35 -84 15 -27 42 -35 128 -36 80 -1 103 -14 109 -62 5
-48 38 -66 136 -73 14 -2 27 -62 18 -86 -13 -34 -38 -39 -205 -40 -82 0 -156
-4 -163 -9 -41 -25 -33 -98 12 -112 12 -4 232 -8 489 -8 529 -2 500 -6 503 77
0 22 6 43 12 45 7 2 12 9 12 16 0 17 87 96 106 96 8 0 22 7 30 15 12 11 39 15
104 15 96 0 180 25 180 55 0 8 5 15 10 15 6 0 15 12 21 27 7 16 16 38 21 49
13 27 7 77 -20 172 l-20 72 24 36 c32 47 31 114 -1 114 -27 0 -25 20 5 51 36
38 40 84 11 121 -11 13 -23 36 -26 50 -6 22 -2 27 27 37 82 31 78 27 78 76 0
37 -6 54 -32 85 -17 22 -39 42 -50 45 -10 4 -18 15 -18 26 0 11 -4 18 -9 15
-10 -7 -68 46 -103 94 -14 19 -28 55 -31 80 -19 136 -58 260 -81 260 -5 0 -7
3 -4 6 4 3 -8 33 -24 67 -73 148 -174 263 -311 355 -42 29 -78 52 -81 52 -2 0
-26 10 -53 22 -26 11 -55 23 -63 25 -39 10 -45 12 -45 13 0 4 -54 12 -87 14
-20 0 -36 5 -35 11 3 13 -355 13 -365 0 -5 -7 -10 -7 -15 0 -8 11 -93 14 -93
4 0 -3 -7 -6 -15 -6 -8 0 -15 3 -15 7 0 3 -9 6 -20 6 -11 0 -20 -4 -20 -9 0
-4 -5 -5 -12 -1 -18 11 -68 13 -62 2 4 -7 0 -7 -12 0 -11 5 -28 6 -39 2z"/>
<path d="M677 2165 c-7 -5 -17 -22 -20 -36 -10 -38 31 -78 74 -73 35 4 53 19
62 53 13 50 -69 90 -116 56z"/>
<path d="M405 1650 c-8 -9 -15 -31 -15 -48 0 -39 37 -67 75 -58 15 4 25 2 25
-4 0 -6 5 -8 11 -5 14 9 233 10 248 1 6 -4 11 -2 11 5 0 7 3 9 7 6 3 -4 17 5
30 19 17 18 22 32 17 47 -14 50 -23 52 -214 53 -156 1 -182 -2 -195 -16z"/>
<path d="M43 1509 c-30 -20 -36 -41 -21 -74 13 -30 37 -37 118 -37 122 1 136
2 153 15 26 18 30 61 9 87 -17 21 -28 23 -125 25 -87 1 -111 -1 -134 -16z"/>
<path d="M300 1280 c0 -6 -5 -8 -10 -5 -6 4 -22 0 -35 -9 -49 -32 -7 -120 53
-110 69 13 84 83 25 117 -21 12 -33 14 -33 7z"/>
<path d="M669 887 c-38 -29 -33 -89 9 -106 23 -9 71 -8 76 1 1 2 9 15 18 29
17 27 15 33 -18 77 -7 10 -71 9 -85 -1z"/>
<path d="M466 377 c-8 -7 -20 -24 -25 -39 -9 -23 -6 -30 14 -50 23 -22 30 -23
195 -24 136 -1 175 2 186 13 8 8 14 11 15 6 0 -4 4 2 10 15 13 33 2 68 -27 81
-33 15 -347 13 -368 -2z"/>
</g>
</svg>
