<?xml version="1.0" standalone="no"?>
<!DOCTYPE svg PUBLIC "-//W3C//DTD SVG 20010904//EN"
 "http://www.w3.org/TR/2001/REC-SVG-20010904/DTD/svg10.dtd">
<svg version="1.0" xmlns="http://www.w3.org/2000/svg"
 width="267.000000pt" height="267.000000pt" viewBox="0 0 267.000000 267.000000"
 preserveAspectRatio="xMidYMid meet">
<metadata>
Created by potrace 1.11, written by Peter Selinger 2001-2013
</metadata>
<g transform="translate(0.000000,267.000000) scale(0.100000,-0.100000)"
fill="#000000" stroke="none">
<path d="M854 2517 c-27 -33 -28 -37 -13 -71 15 -32 38 -37 179 -37 103 0 121
-2 140 -19 25 -21 30 -71 10 -95 -6 -7 -31 -18 -55 -24 -40 -10 -45 -15 -51
-47 -9 -51 19 -78 86 -80 28 -1 60 -4 73 -8 53 -13 59 -95 9 -119 -18 -9 -63
-13 -134 -12 -130 2 -168 -13 -164 -65 4 -64 8 -65 300 -65 240 0 266 -2 284
-18 30 -27 33 -65 8 -93 -21 -23 -22 -24 -251 -25 -241 -2 -267 -7 -280 -49
-8 -25 14 -68 39 -77 12 -3 72 -7 133 -7 123 -2 138 -7 147 -59 4 -21 -1 -35
-18 -52 -22 -22 -31 -23 -140 -23 -131 0 -151 -8 -162 -68 -12 -63 -22 -66
-232 -68 -160 -1 -191 -4 -205 -17 -27 -28 -30 -62 -7 -87 25 -27 11 -24 147
-26 122 -2 153 -15 153 -61 0 -13 9 -33 19 -46 l19 -24 329 -2 c180 -1 336 -4
347 -6 44 -9 59 -68 28 -108 -19 -22 -20 -22 -318 -24 -164 -1 -304 -3 -311
-3 -22 -3 -52 -44 -47 -65 9 -48 37 -60 136 -62 114 -2 133 -8 147 -46 21 -61
-19 -94 -109 -90 -45 1 -90 -17 -92 -38 0 -9 -2 -23 -3 -31 -1 -8 8 -25 19
-37 17 -20 29 -23 105 -23 99 -1 119 -11 128 -64 7 -46 32 -67 83 -71 80 -6
111 -67 60 -119 -16 -16 -37 -19 -189 -20 -184 -2 -193 -5 -206 -56 -4 -18 0
-33 15 -50 l22 -25 503 -3 504 -3 16 24 c8 13 16 41 17 61 1 20 5 39 10 42 4
3 8 13 8 22 0 23 85 102 109 102 11 0 21 5 23 12 3 8 43 14 119 19 63 3 123
10 134 14 31 14 85 77 92 108 3 15 10 30 14 33 12 7 11 60 0 98 -36 115 -40
148 -26 177 8 15 19 31 25 34 20 12 11 65 -15 87 -32 27 -31 32 5 70 36 37 39
74 9 111 -11 15 -23 42 -26 60 -5 31 -2 35 28 46 74 27 84 35 87 72 3 30 -4
42 -53 91 -30 32 -55 62 -55 68 0 5 -5 10 -11 10 -16 0 -139 129 -140 148 -1
9 0 23 1 31 1 8 -3 33 -8 55 -6 23 -18 79 -28 125 -10 46 -23 88 -28 95 -6 6
-22 36 -36 66 -89 194 -287 393 -455 455 -27 11 -52 22 -55 25 -9 9 -137 40
-169 40 -17 0 -31 5 -31 10 0 7 -120 10 -361 8 l-361 -3 -24 -28z"/>
<path d="M720 2264 c-68 -35 -30 -133 47 -120 33 6 50 23 58 57 13 53 -50 91
-105 63z"/>
<path d="M425 1715 c-14 -13 -25 -30 -25 -37 1 -24 27 -61 46 -65 17 -3 267
-6 337 -4 58 2 86 67 47 109 -20 21 -28 22 -201 22 -178 0 -180 0 -204 -25z"/>
<path d="M35 1566 c-27 -27 -26 -59 3 -88 14 -15 36 -18 122 -19 110 -1 164 7
154 22 -3 5 0 9 6 9 7 0 10 15 8 37 -4 52 -29 62 -161 62 -101 0 -110 -1 -132
-23z"/>
<path d="M277 1329 c-23 -13 -39 -56 -31 -81 3 -11 21 -26 40 -34 30 -13 38
-12 63 0 36 19 48 59 26 92 -8 13 -21 24 -28 25 -6 0 -21 2 -32 4 -11 2 -28
-1 -38 -6z"/>
<path d="M708 927 c-67 -24 -42 -120 32 -120 63 0 95 65 53 107 -25 25 -45 28
-85 13z"/>
<path d="M479 383 c-15 -13 -26 -29 -25 -36 6 -36 19 -57 39 -63 33 -12 349
-12 372 -1 39 19 48 48 28 90 -16 31 -1 29 -217 31 -163 2 -170 1 -197 -21z"/>
</g>
</svg>
