<?xml version="1.0" encoding="utf-8"?>
<!-- Generator: Adobe Illustrator 23.0.3, SVG Export Plug-In . SVG Version: 6.00 Build 0)  -->
<svg version="1.1" id="Слой_1" xmlns="http://www.w3.org/2000/svg" xmlns:xlink="http://www.w3.org/1999/xlink" x="0px" y="0px"
	 viewBox="0 0 1532.4 712.7" style="enable-background:new 0 0 1532.4 712.7;" xml:space="preserve">
<style type="text/css">
	.st0{fill:url(#SVGID_1_);}
	.st1{fill:url(#SVGID_2_);}
	.st2{fill:url(#SVGID_3_);}
	.st3{fill:url(#SVGID_4_);}
	.st4{fill:url(#SVGID_5_);}
	.st5{fill:url(#SVGID_6_);}
	.st6{fill:url(#SVGID_7_);}
	.st7{fill:url(#SVGID_8_);}
</style>
<g>
	<linearGradient id="SVGID_1_" gradientUnits="userSpaceOnUse" x1="1047.8314" y1="337.5077" x2="1507.0757" y2="337.5077">
		<stop  offset="5.618000e-03" style="stop-color:#EEC44B"/>
		<stop  offset="0.2528" style="stop-color:#FFFBC9"/>
		<stop  offset="0.3146" style="stop-color:#F4ECB8"/>
		<stop  offset="0.4375" style="stop-color:#D7C48B"/>
		<stop  offset="0.5955" style="stop-color:#AD8A49"/>
		<stop  offset="0.8708" style="stop-color:#E4D085"/>
		<stop  offset="1" style="stop-color:#FFFBC9"/>
	</linearGradient>
	<path class="st0" d="M1507.1,569.1c-3.8,0.3-4.4,3.1-5.4,6.1c-2.6,8.3-5.6,16.5-8.4,24.7c-0.3,0.9-0.8,1.8-1.1,2.8
		c-2.6,8.7-5.2,17.4-7.7,26.1c-0.5,1.7-0.2,3.7-0.6,5.4c-0.7,2.5-1.6,4.9-2.6,7.3c-1.5,3.6-3.8,6.9-4.6,10.6
		c-1.6,6.9-3.8,8.3-10.9,8.7c-6.7,0.4-12.2-2-18.2-4c-4.6-1.6-9.8-1.4-14.5-2.8c-6.3-1.8-12.4-4.4-18.6-6.6c-2-0.7-4.2-1-6.2-1.6
		c-3.1-0.9-6.1-1.9-9.1-2.9c-1.8-0.6-3.6-1.5-5.5-2c-3.5-0.8-7.1-1.3-10.6-2.1c-7.4-1.6-14.7-3.4-22.1-5.1
		c-8.2-1.8-17.1-2.1-24.5-5.6c-7.9-3.7-16.1-4.9-24.2-6.4c-6.7-1.2-13.7-4.4-20.9-1.3c-1.2,0.5-3.3-0.2-4.7-0.9
		c-9.5-4.9-19.1-6.2-29.9-4.4c-6.5,1.1-13.3,4.6-20.3,1.1c-1.1-0.6-3.5-0.3-4.2,0.5c-5.8,6.1-14.1,3.9-21,6.4
		c-6.7,2.4-14.2,2.7-21.4,3.9c-3.7,0.6-5.7-1.2-6.5-4.6c-5.3-21.5-10.7-42.9-15.8-64.5c-0.7-3.1-0.4-6.6-0.1-9.9
		c0.3-3.2,1.9-5.6,5.6-5.9c1.4-0.1,2.7-1.2,4.1-1.6c2.5-0.7,5.1-1.9,7.6-1.7c5.2,0.4,7.6-1.2,7.7-6.5c0-1.6-0.2-3.3-0.6-4.9
		c-1.6-6.4-3.3-12.7-5.1-19c-0.4-1.4-0.7-3.3-1.7-4.1c-8.4-6.7-8.2-17.5-12.2-26.2c-3.5-7.9-3.6-17.3-5.4-26
		c-0.6-2.9-1.4-5.7-2.4-8.5c-3.5-8.9-4.2-17.7,0.7-26.3c3-5.3,2.5-15.2-1.7-19.7c-3.1-3.2-4.5-6.3-2.4-10.7c1.7-3.6-0.4-6.5-2.5-9.6
		c-1.8-2.7-2.4-6.2-3.7-9.3c-4.3-10.1-1.1-21.6-6.2-31.9c-2.8-5.7-5.7-12.9-2.4-20.1c0.3-0.6,0.4-1.4,0.2-2
		c-3.8-12.3,2.4-22.5,6.9-33c2.7-6.3,0.5-11-6.4-12c-7.6-1.1-15.2-1.3-22.9-2c-2.9-0.2-3.9,1.5-3.8,4c0.9,17.9,2,35.8,2.9,53.7
		c0.3,5.9,0.1,11.8,0.4,17.7c0.2,3.1,0.9,6.2,1.4,9.2c0.1,0.8,0.6,1.8,0.3,2.4c-3.7,9.9,1.9,19.1,2.1,28.7c0.1,4.1-0.8,5.7-4.9,5.1
		c-1.6-0.2-3.2-0.8-4.8-1.4c-14.5-5.5-28.9-11.1-43.4-16.6c-9.4-3.6-14.5-11.5-14.6-21.7c0-2.9-1.6-5.7-1.9-8.6
		c-0.5-4-0.6-8-0.8-11.9c-0.4-11-1.7-21.7-5.8-32c-0.9-2.4-0.3-5.4-0.3-8.1c-0.1-4.2,0.2-8.5-0.2-12.7c-0.9-9.5-2.7-18.9-3.2-28.4
		c-0.3-5.9,2.4-6.9,8.1-5.3c5.1,1.4,10.3,2.1,15.5,2.8c8.7,1.2,17.4,2.1,26.2,3c12.5,1.4,25.1,3,37.6,4.2c7.3,0.7,14.6,1.3,21.9,1.5
		c2.1,0.1,5.1-0.7,6.2-2.2c6.1-7.9,10.8-16.5,8.5-27c-0.4-2-2.8-4-4.8-5c-6.3-3.2-7.8-4.6-6.2-11.1c2.1-9,5.1-17.9,8-26.7
		c4.6-14,9.3-28,14.2-41.9c1.2-3.4,3.6-6.3,5-9.7c3-7.7,5.9-15.5,8.5-23.4c1.4-4.4,4.1-7.3,7.9-9.8c6.7-4.4,13-9.5,19.6-14.1
		c2.7-1.8,6.1-2.6,8.8-4.4c24-15.9,47.9-32,71.9-48c7.7-5.2,15.5-10.3,23.3-15.4c1.7,0,3.3,0,5,0c6.7,4.5,7.6,7.5,4.6,15.2
		c-16.1,41.9-32.1,83.8-48.1,125.6c-0.3,0.8-0.4,1.6-0.6,2.4c-1.2,4.8-2.6,9.5-3.5,14.4c-0.4,2.2-0.2,4.8,0.7,6.8
		c1,2.4,2.7,4.8,4.7,6.3c1.7,1.3,4.4,1.9,6.6,1.7c4.3-0.3,8.4-1.6,12.7-2.1c9.1-1,18.2-1.7,27.3-2.5c2-0.2,4-0.3,6-0.2
		c5.7,0.4,8.7,3.5,9.5,9.6c1,7.3-0.9,11.5-6.7,13.2c-8.1,2.4-16.3,4.5-24.6,6.4c-6.9,1.6-8.2,3.1-5.4,9.4c2.9,6.6,4,13.3,2.5,20.4
		c-0.6,2.9-0.4,6-0.6,9c-0.5,9,2.7,17.2,8.2,23.5c7.8,9.1,17.2,17,26,25.3c19.3,18.1,38.6,36.2,58.2,54c4.5,4.1,6.7,8.4,6.6,14.3
		c-0.2,9.2-0.7,18.3-0.3,27.5c0.5,11.7-0.8,22.7-6.7,33.1c-3,5.4,0,9.4,6.1,9.7c2.9,0.1,6,0.6,8.7,1.6c5.1,2,10.2,4.2,14.8,7.1
		c3,1.8,6.9,4.5,7.7,7.5c1.5,6.3,4.5,11.1,9,15.6c1.9,1.9,2.9,4.8,4.5,7.1c4.9,7,10.6,13.6,14.7,21.1c7.2,13.1,13.7,26.6,20.1,40
		c2.6,5.5,4,11.5,6.5,17.1c0.9,1.9,3.2,3.2,4.9,4.7C1507.1,562.5,1507.1,565.8,1507.1,569.1z M1391.6,605.4
		c-0.4,6.7-3.5,8.6-9.4,5.4c-3.3-1.8-6.5-4.1-9.5-6.5c-6.6-5.3-13.2-10.7-19.6-16.2c-7.2-6.2-15.5-7.7-24.3-5.3
		c-5.9,1.6-11.5,4.2-17.2,6.7c-6.6,2.9-7.5,2.5-10-4c-0.5-1.2-2.8-1.8-4.3-2.6c-1.7,4-4.7,7.9-4.9,11.9c-0.2,4.6,4.6,6.2,8.6,5.3
		c5.5-1.2,10.7-3.4,16-5.3c4.2-1.5,8.3-3.6,12.6-4.8c7.2-2.1,13.8-0.9,19.6,4.2c6.3,5.5,12.6,11,19.3,15.8
		c5.9,4.2,12.2,8.1,18.8,11.2c6.1,2.9,10.4-0.3,10.9-7.1c0.7-8.4-1.4-16.3-3.7-24.5c-3.1-11-4.7-22.4-6.6-33.7
		c-0.8-4.6,1.7-7.9,6-9.8c6.5-2.9,13.1-5.9,19.5-9c3.9-1.9,7.9-3.7,11.4-6.1c4.5-3.1,5.2-7.4,2.9-12.3c-2.3-4.9-6.9-6.4-11.6-7.7
		c-12.7-3.5-25.4-6.9-38-10.8c-8.6-2.7-10.6-8-7.5-16.3c0.9-2.5,1.1-5.5,0.9-8.2c-0.3-4.8-1.1-9.5-1.8-14.3
		c-0.9-6.1-1.3-12.3-2.9-18.2c-0.7-2.6-3.4-5.8-5.9-6.6c-2.1-0.6-5.4,1.5-7.6,3.1c-3.5,2.5-6.6,5.5-9.6,8.6
		c-4.4,4.5-9.2,8.8-12.6,13.9c-5.3,8.1-13.3,11.8-22.7,9c-2.2-0.7-4.4-2.1-6.6-2.1c-2.5-0.1-5,1-7.5,1.6c1.1,2.2,1.6,5.7,3.3,6.5
		c6.2,2.8,13,6.6,19.3,6.2c5.5-0.3,11.4-4.9,15.8-9c6.8-6.4,12.4-14.2,18.8-21.2c1.3-1.5,4.6-2.8,6-2.2c1.8,0.9,3.4,3.7,3.6,5.9
		c0.5,7.8,1,15.7,0.4,23.4c-1.4,16.5,3.1,23.7,19.1,28.3c10.7,3.1,21.6,5.8,32.2,9.1c2.6,0.8,4.6,3.2,6.9,4.8c-2,2.2-3.6,5.2-6,6.4
		c-7.7,4-15.7,7.3-23.6,10.9c-8.3,3.8-11.2,7.6-9.7,16.4c2.1,12.9,5.2,25.7,8.1,38.5C1389.4,598.4,1390.6,601.9,1391.6,605.4z
		 M1301,410.9c0.2,0.4,0.3,0.9,0.5,1.3c4.5,0.8,8-0.9,9.9-5c1.9-4.1-0.1-7.3-3-10.2c-6.5-6.4-12.7-13.2-19.5-19.3
		c-4-3.6-9-6.2-8.7-12.8c0-1.2-1.6-2.5-2.5-3.6c-1.5-1.8-2.9-3.6-4.5-5.3c-1.2-1.2-2.5-2.3-3.8-3.5c-0.8,1.7-2.2,3.3-2.2,5
		c-0.4,13.3,0.9,26.4,7.8,38.3c3.8,6.6,1.2,11.6-6.2,13c-3.1,0.6-6.2,1.4-9,2.8c-6.2,2.9-8.4,7.8-7,14.3c1,4.9,1.8,9.8,3.2,14.6
		c0.6,2,2.7,3.5,4.1,5.3c1-2.1,2.8-4.2,2.7-6.2c-0.1-4.1-1.2-8.2-2.1-12.3c-1.3-6.2,0.3-9.5,6.5-10.5c4.3-0.7,8.9,0,13.3,0
		c1.9,0,3.9,0.1,5.7-0.5C1291.1,414.6,1296,412.7,1301,410.9z"/>
	<linearGradient id="SVGID_2_" gradientUnits="userSpaceOnUse" x1="14.9203" y1="345.9385" x2="474.4031" y2="345.9385">
		<stop  offset="5.618000e-03" style="stop-color:#EEC44B"/>
		<stop  offset="0.2528" style="stop-color:#FFFBC9"/>
		<stop  offset="0.3146" style="stop-color:#F4ECB8"/>
		<stop  offset="0.4375" style="stop-color:#D7C48B"/>
		<stop  offset="0.5955" style="stop-color:#AD8A49"/>
		<stop  offset="0.8708" style="stop-color:#E4D085"/>
		<stop  offset="1" style="stop-color:#FFFBC9"/>
	</linearGradient>
	<path class="st1" d="M350.5,611.8c-8,0-14.7,0.1-21.3,0c-13.2-0.1-26.3-0.3-39.5-0.5c-4.4-0.1-8.4,0.8-11.9,4.1
		c-3.7,3.6-7.4,3.1-10.8-0.7c-2.8-3.1-5.8-6-8.3-9.3c-3.3-4.6-7.5-5.8-13-5.5c-24.3,1.5-48.6,2.9-72.9,4.2
		c-6.9,0.4-10.8,5.1-14.3,9.8c-4,5.3-8.2,8-15.3,8.1c-19.8,0.2-39.6,1.6-59.5,1.8c-8.4,0.1-15.1,3.3-21.6,7.9
		c-2.3,1.7-4.2,2.3-7.1,0.4c-4.3-2.9-9-2-13,1.2c-2.2,1.8-4.1,3.9-6.1,5.9c-4.5,4.6-10.7,3.9-14.1-1.6c-1.8-2.8-3.3-5.8-5.4-8.4
		c-3.1-3.9-2-6.7,1.1-9.9c6.8-7.1,13.1-14.6,19.8-21.9c4.7-5,5.7-10.5,3.5-17.1c-0.8-2.3-0.8-5.4,0.1-7.6
		c9.7-24.1,19.5-48.1,29.6-72c1-2.3,3.2-4.7,5.5-5.9c7.6-3.9,11.6-9.5,10.8-18.3c-0.3-3.5,0-7,0.1-10.5c0.2-6,1.4-7.3,7.4-7.5
		c3.8-0.2,7.7-0.1,11.5-0.2c3.6-0.1,7.3-0.5,11.5-0.8c14.7,34.8,29.6,69.9,44.7,105.6c-8.2,1.2-15.8,2.3-23.1,3.4
		c-0.7-1.2-1.1-1.4-1-1.7c0.1-5.2-1.4-9.7-6.8-11.6c-5.4-1.9-9.7,0.4-13.3,4.5c-4.1,4.8-8.3,9.6-12.3,14.4c-3.2,3.9-4.4,8.2-2.1,13
		c2.3,4.9,6.7,5.6,11.5,5c20.6-2.7,41.3-5.2,61.9-8.3c10-1.5,13.1-7.6,9.1-17.1c-10-24-20.3-47.8-30.5-71.7
		c-7.4-17.5-14.7-35-22.2-52.4c-1.2-2.8-1-4.8,0.7-7.3c9-12.6,17.8-25.4,26.8-38c4.8-6.7,4.5-12.7-2.2-17.8
		c-6.8-5.2-14.4-6.8-23-4.6c-16.9,4.5-31.7,12.9-46,22.5c-2.1,1.4-5.1,2.9-7.2,2.4c-3.2-0.7-7.3-2.6-8.5-5.1c-0.9-2,1.3-6.2,3.3-8.7
		c34.7-43.7,69.5-87.4,104.4-130.9c5.5-6.8,7.5-13,2.2-20.7c-4.2-6,0.3-12.1,7.2-11.9c13.8,0.6,27.6,0.3,41.4-0.1
		c3.2-0.1,6.4-2.1,9.6-3.1c2.5-0.8,4.9-2,7.4-2.1c12.7-0.5,25.3-0.4,38-1c3.5-0.2,6.9-2,10.3-3.1c1.4-0.4,2.8-1.2,4.2-1.3
		c6.8-0.1,13.6-0.1,21.1-0.1c1.3,7.1,2.6,13.9,3.9,20.7c0.1,0.7,0.1,1.3,0.3,2c1.5,7.8,6.6,12,12.9,11c6.5-1.1,9.8-7.1,8.5-15.1
		c-1.5-9.7-2.9-19.4-4.5-29.1c-1.5-8.8-6-12.1-15-11.8c-4.3,0.1-8.6,0.1-12.8-0.4c-3.5-0.3-5.1-2.8-5.3-6.2c-0.3-4.5-0.7-9-1-13.5
		c-0.4-4.7,2.1-7.8,6.5-7.6c8.8,0.3,14.5-4.4,20.1-10.2c11.1-11.5,22.6-22.6,33.9-33.9c6.7-6.7,7-9.2,2.9-17.6
		c-3.8-7.7-4-7.9,2.4-13.9c11.6-10.9,23.5-21.6,35.5-32.2c1.6-1.4,5.5-2.9,6.2-2.3c2.4,2.4,4.3,5.6,5.6,8.8c1.3,3.1,0.9,7.1,2.6,9.8
		c13,21,26.3,41.7,39.5,62.5c2.2,3.5,4.4,7.1,7.1,10.2c2.5,2.9,2.2,5.2,0.2,8c-3.9,5.6-7.6,11.4-11.5,16.9
		c-2.6,3.6-5.4,5.3-10.1,2.6c-6.1-3.5-12.6-1.4-16.2,4.7c-4.6,7.8-9.3,15.4-13.2,23.5c-1.6,3.3-1.7,7.7-1.4,11.4
		c0.4,4.1,2.2,8,3.1,12.1c1.8,7.7,5.5,13.5,12.7,17.6c3.2,1.8,6,5.7,7.4,9.3c5.9,15.4,11.3,31,16.8,46.5c1.9,5.2,4.4,9.7,10.1,11.5
		c3,1,4.1,3.1,3.5,6.2c-0.7,3.6,0,7.9-4.9,9.5c-2.2,0.7-4.6,1-6.6,2.2c-4.3,2.5-5.2,6.7-4.3,11.3c2.7,14.2,5.4,28.5,8.3,42.6
		c2.6,12.9,5.6,25.7,7.9,38.6c0.6,3.3-0.3,7.1-1,10.5c-2.5,11.2-10,17.5-20.3,21.9c-9.5,4.1-18.4,9.4-27.4,14.4
		c-3.3,1.8-6.2,2.2-9.9,1c-42-13-84-25.8-125.9-39c-9.1-2.9-15.9-1.6-21.1,6.6c-1,1.5-2.1,3.1-3.5,4.2c-6.9,5.6-6.4,12.3-3.6,19.7
		c12.7,34,25.2,68.1,37.8,102.1c5.2,14.1,15.6,25.4,35.3,24.8c2-0.1,5.2,2.4,6.1,4.5C344.2,594.3,347,602.5,350.5,611.8z
		 M209.8,245.2c-3,3.7-5.1,6.3-7.2,8.8c-23.3,29.1-46.6,58.3-69.7,87.5c-1.8,2.3-3.4,5.1-4.1,7.8c-1.5,5.5,0.5,7.8,6.1,7.8
		c7.1,0,14.2-0.6,21.3-0.4c8.1,0.2,16.3,0.9,24.4,1.6c3.6,0.3,5.7-0.9,7.6-4c8.1-13.4,16.5-26.6,24.8-39.8c3-4.8,2.9-9.5-0.5-14.2
		c-0.9-1.2-2.2-2.6-2.2-3.8c0.2-8.2-3-16.8,3.4-24.2c1-1.2,1.4-3.5,1-5.2C213.4,260.2,211.7,253.5,209.8,245.2z M354.2,404.1
		c9.4,0.3,15.2-5.7,13.3-13.8c-4.7-19.5-9.8-39-15.4-58.3c-2.6-9-13.2-11-18.9-3.5c-11.2,14.6-22.6,29.3-32.4,44.9
		c-7,11.1-5.5,21.2,10.5,23c0.5,0.1,1,0.2,1.5,0.3C326.8,399.2,341.1,401.8,354.2,404.1z"/>
	<linearGradient id="SVGID_3_" gradientUnits="userSpaceOnUse" x1="620.5222" y1="563.4664" x2="992.2476" y2="563.4664">
		<stop  offset="5.618000e-03" style="stop-color:#EEC44B"/>
		<stop  offset="0.2528" style="stop-color:#FFFBC9"/>
		<stop  offset="0.3146" style="stop-color:#F4ECB8"/>
		<stop  offset="0.4375" style="stop-color:#D7C48B"/>
		<stop  offset="0.5955" style="stop-color:#AD8A49"/>
		<stop  offset="0.8708" style="stop-color:#E4D085"/>
		<stop  offset="1" style="stop-color:#FFFBC9"/>
	</linearGradient>
	<path class="st2" d="M820,629.9c-5.2-6.8-10.3-12.1-16.7-16c-2.2-1.3-3.8-3.5-5.8-5.1c-6.9-5.4-11.2-14-20.9-15.8
		c-2.1-0.4-3.9-2.3-5.8-3.6c-2.9-1.9-5.7-3.9-8.6-5.8c-0.8-0.6-2.1-0.8-2.5-1.6c-4.8-9.1-14.9-12.1-21.8-18.7
		c-0.8-0.8-2.1-1.8-2-2.7c0.6-7.9-5.5-11.5-10.5-14.6c-11.7-7.2-16.6-17.6-17.1-30.7c-0.6-14.8-1.4-29.6-1.6-44.4
		c-0.1-3.9,1.1-8.3,3-11.8c2.6-4.9,7.6-5.3,11.9-1.9c12.6,9.8,25,19.9,37.9,29.2c5,3.6,11.3,5.3,16.9,8.2c1.9,1,4.2,2.6,5,4.5
		c1.7,4,4.6,5.3,8.5,5.7c7.4,0.9,11.6,5.7,14.4,12.2c0.5,1.2,0.9,2.8,1.8,3.4c7.2,5,14.5,9.9,21.9,14.7c1.9,1.3,4,2.5,6.2,3.2
		c1.4,0.4,3.6,0.4,4.6-0.4c0.9-0.8,1.2-3.2,0.7-4.3c-1.7-3.5-4.1-6.6-6-10c-0.9-1.6-1.7-3.5-1.7-5.3c0-4,0.9-7.9,0.9-11.9
		c0.1-17.1,4.8-33,15.9-45.7c12.6-14.3,28-25,48.6-24.9c6.1,0,12.2-1.5,18.3-2c2.1-0.2,4.3,0.8,6.4,1.3c0.6,0.2,1,0.9,1.6,1.1
		c6.5,2.2,13,4.3,19.4,6.5c0.9,0.3,2,0.6,2.6,1.2c4.6,4.5,9.6,8.8,13.7,13.7c9,10.9,13.9,23.8,18.6,37.1c2.8,8.1,3.5,16.4,5.8,24.5
		c0.9,3.2,0.6,6.9,0.5,10.3c-0.2,5.6-1.4,11.2-0.9,16.7c0.7,7.6-0.8,15.9,5.4,22.5c2.3,2.4,4,6.4,4,9.8c0.2,16.8-0.4,33.6-0.6,50.4
		c-0.1,9.1-0.1,18.3,0.1,27.4c0.1,4.4-0.4,8.4-4.6,10.9c-4.1,2.4-7.7,0.6-11.1-1.8c-2.7-1.9-5.6-3.7-8.1-5.8
		c-6.3-5.3-14.3-5.8-21.7-8.2c-1.7-0.5-4.8,0.2-5.9,1.5c-5,6-12.4,6.6-18.9,8.1c-8.9,2-18.3,2.1-27.5,2.8
		c-5.5,0.4-10.5-0.8-14.4-5.3c-2.3-2.6-5.3-2.8-8.7-1.6c-9.2,3.1-18.5,2.8-27.9,0.1c-4.5-1.3-9.4-1.8-14.1-2.5
		c-7.8-1.2-15.7-2.2-23.5-3.3c-6.9-1-13.8-2-20.6-3c-2.3-0.3-4.6-0.3-6.9-0.6c-9.4-1.1-17.6,1.4-25.2,7.1
		c-7.9,5.8-16.3,10.9-24.3,16.5c-5.5,3.9-5.6,6.4-1.3,11.4c0.5,0.6,1.4,1.1,1.6,1.9c0.7,2.1,2.2,4.7,1.5,6.2
		c-0.7,1.5-3.8,2.9-5.7,2.7c-6-0.6-12-1.9-18-2.9c-2.9-0.5-5.9-1.3-8.8-1.4c-15.3-0.1-30.7-0.5-46,0.1c-7.5,0.3-15,2-22.4,3.7
		c-6,1.4-8,0.4-8.5-6c-0.7-8.1-0.2-8.8,7-12.2c1.3-0.6,2.4-1.7,3.7-2.5c2.5-1.6,5-3.3,7.6-4.8c8-4.6,17.4-7.3,22.9-15.7
		c1.2-1.8,3.5-2.8,5.1-4.5c3.3-3.4,6.4-7,9.8-10.3c1.6-1.6,3.8-2.7,5.6-4.1c3.2-2.5,6.5-4.9,9.6-7.5c2.3-1.9,4.5-4.1,6.8-6.1
		c2.7-2.4,5.3-4.9,8-7.3c1.4-1.2,3.3-3.3,4.4-3c1.7,0.5,3.4,2.5,4.3,4.3c0.9,1.7,0.8,3.9,1.2,5.8c1,5,4.1,6.3,8.8,4.6
		c4.6-1.6,9.4-2.5,14.2-3.9c2.7-0.7,5.3-1.9,8-2.5c3.6-0.7,7.6-2,10.9-1.2c6.9,1.6,13.3,5,20.2,6.6c12,2.9,24.1,5.1,36.2,7.5
		C816.3,630.1,817.6,629.9,820,629.9z"/>
	<linearGradient id="SVGID_4_" gradientUnits="userSpaceOnUse" x1="501.428" y1="367.0944" x2="702.0995" y2="367.0944">
		<stop  offset="5.618000e-03" style="stop-color:#EEC44B"/>
		<stop  offset="0.2528" style="stop-color:#FFFBC9"/>
		<stop  offset="0.3146" style="stop-color:#F4ECB8"/>
		<stop  offset="0.4375" style="stop-color:#D7C48B"/>
		<stop  offset="0.5955" style="stop-color:#AD8A49"/>
		<stop  offset="0.8708" style="stop-color:#E4D085"/>
		<stop  offset="1" style="stop-color:#FFFBC9"/>
	</linearGradient>
	<path class="st3" d="M563.6,536c7.7-0.3,10.7-4.8,12.2-11.3c8.5-37.7,17.3-75.3,25.6-113c1-4.7,0.6-10.4-1-15
		c-8-23.5-16.6-46.7-25-70.1c-0.3-0.8-0.6-1.6-0.7-2.4c-1.4-7-5.3-10.5-12.7-10.3c-10,0.3-15.5-4.9-17.9-14.5
		c-1.8-7.1-5-13.8-6.9-20.8c-0.8-2.8-0.8-6.9,0.7-8.9c11.3-14.9,16.7-32.6,24-49.3c15.8-36.2,31-72.6,46.5-108.9
		c0.9-2.2,2.4-4.6,4.2-6c3.9-3,9.3-1,11.2,4.1c3.2,8.6,6.1,17.3,9.1,25.9c11.2,32.2,22.3,64.5,33.6,96.7c2.1,6.1,2,11.5-2.2,16.9
		c-1.5,2-2.2,5.3-2,7.9c0.4,4.4,1.7,8.8,2.8,13.2c1.9,7.7,3.7,15.5,6,23.1c3.6,12.2,7.9,24.2,11.3,36.4c2.9,10.4,6.4,20.6,1.1,31.9
		c-3.3,7.1-2.9,15.8-4.6,23.7c-0.9,4.3-2.8,8.5-4.3,12.6c-0.4,1.1-1.4,2-1.7,3c-2.1,8.9-5.1,17.8-5.9,26.9c-0.7,7.4-5,12.9-6.9,19.6
		c-2.2,7.8-4.3,15.7-6,23.6c-0.3,1.5,1.4,4.1,2.9,5.2c0.9,0.7,3.6,0.1,4.8-0.7c7.5-5.2,14.8-10.8,22.3-16c2.2-1.5,4.9-3,7.5-3.3
		c5.8-0.5,8.7,2.7,8.7,8.8c0.2,16,0.3,32,0.6,48c0.1,4.8,0.9,9.6,1,14.4c0.1,4.6-0.9,8.5-7.2,8.4c-2.3,0-4.8,2.6-7,4.2
		c-4.6,3.2-9.3,6.2-13.6,9.7c-2.8,2.4-5.7,5.2-7.2,8.5c-2.4,5-5.4,8.6-10.6,10.6c-2.5,1-4.7,2.9-7,4.6c-1.9,1.3-3.4,3.4-5.5,4.2
		c-4,1.5-6.5,4.1-8.5,7.9c-1.2,2.3-3.8,4.2-6.3,5.4c-11,5.3-22.1,10.2-33.1,15.3c-3.9,1.8-7.5,1.4-10.5-1.9c-3.4-3.8-6.8-3.3-11-0.8
		c-9.7,5.6-19.8,10.6-29.6,16c-1.7,0.9-3.3,2.2-4.9,3.4c-1.6,1.2-2.9,2.8-4.5,4c-7.5,5.1-11.2,4.5-15.5-3.2
		c-4.5-8.1-8.4-16.6-12.6-24.9c-2-4-4.3-7.9-5.7-12.2c-0.7-2.1-0.4-5.1,0.7-7c3.4-5.9,7.1-11.8,11.3-17.1c2.8-3.6,7-6,10-9.5
		c1.9-2.1,2.7-5.2,4-7.9c0.4-0.9,0.4-2.4,1-2.7c8-4.3,5.9-13.1,8.7-19.6c1.4-3.2,1.7-6.8,2.7-10.1c1.3-4.2,4.1-7.1,8.7-7
		c4.4,0.1,7.3,2.3,8.4,7C559.3,520.5,561.6,528.3,563.6,536z"/>
	<linearGradient id="SVGID_5_" gradientUnits="userSpaceOnUse" x1="1002.6189" y1="468.6161" x2="1126.2538" y2="468.6161">
		<stop  offset="5.618000e-03" style="stop-color:#EEC44B"/>
		<stop  offset="0.2528" style="stop-color:#FFFBC9"/>
		<stop  offset="0.3146" style="stop-color:#F4ECB8"/>
		<stop  offset="0.4375" style="stop-color:#D7C48B"/>
		<stop  offset="0.5955" style="stop-color:#AD8A49"/>
		<stop  offset="0.8708" style="stop-color:#E4D085"/>
		<stop  offset="1" style="stop-color:#FFFBC9"/>
	</linearGradient>
	<path class="st4" d="M1002.6,559.2c1.8-11,3.9-20.4,4.8-29.9c1.8-17.9,3-35.8,4.5-53.7c1-12.3,1.8-24.6,2.8-36.8
		c0.1-1.6,0.2-3.8,1.2-4.7c4.7-4.7,4.7-9.8,2.1-15.4c-0.4-1-0.5-2.5,0-3.4c0.8-1.6,1.9-3.7,3.4-4.3c1.1-0.4,3.4,0.9,4.4,2.1
		c4.1,5,7.4,4.8,10.6-1.1c1.8-3.3,3.5-6.8,5.2-10.2c3.9-8.1,7.8-16.2,11.7-24.2c2.3-4.7,5.8-6.1,10.7-4.1
		c17.2,6.7,34.4,13.5,51.6,20.3c1.9,0.7,3.7,1.6,5.4,2.5c5.6,3,6.7,8,2.5,12.7c-4,4.5-7.2,9.1-7.6,15.3c-0.1,1.4-1,2.8-1.8,4.1
		c-3.1,4.8-6.1,9.8-9.6,14.4c-4.3,5.7-2.2,11.5-0.8,17.2c0.3,1,2.5,1.6,3.8,2.4c1.9,1.1,4.9,1.8,5.4,3.4c0.6,1.6-0.7,4.5-2.2,6
		c-2.8,2.8-6.2,4.8-9.3,7.3c-6,4.8-12.1,9.4-17.8,14.4c-17.1,15.1-34,30.4-51,45.6c-4.7,4.2-9.7,8-14.1,12.5
		c-2.9,2.9-4.6,6.9-7.4,9.9c-1.5,1.7-4.1,2.4-6.1,3.5C1004.1,562.5,1003.1,560.2,1002.6,559.2z"/>
	<linearGradient id="SVGID_6_" gradientUnits="userSpaceOnUse" x1="1035.116" y1="600.296" x2="1175.7771" y2="600.296">
		<stop  offset="5.618000e-03" style="stop-color:#EEC44B"/>
		<stop  offset="0.2528" style="stop-color:#FFFBC9"/>
		<stop  offset="0.3146" style="stop-color:#F4ECB8"/>
		<stop  offset="0.4375" style="stop-color:#D7C48B"/>
		<stop  offset="0.5955" style="stop-color:#AD8A49"/>
		<stop  offset="0.8708" style="stop-color:#E4D085"/>
		<stop  offset="1" style="stop-color:#FFFBC9"/>
	</linearGradient>
	<path class="st5" d="M1152,640.1c-6.5,1.8-13.2,3-19.4,5.6c-5.8,2.5-11.2,5.2-17.8,5.4c-4.1,0.1-8,2.9-12.1,4.3
		c-5.6,1.9-11.2,3.8-16.7,5.6c-0.3,0.1-0.7,0-1,0.1c-5.4,2.5-11.1,4.6-16,7.8c-4.8,3.1-9.3,1.1-13.9,0.9c-0.7,0-1.7-1.6-1.9-2.6
		c-2.1-8.3-6-15.7-11.4-22.4c-1-1.2-1-3.1-1.6-4.6c-0.9-2.5-1.6-5.3-3.1-7.4c-3-4.3-2.6-14.3,1.7-18.5c3.5-3.5,7.7-6.2,11.2-9.7
		c5.5-5.3,10.7-10.9,16-16.5c9-9.6,17.9-19.2,26.8-28.9c1-1.1,2.4-2.5,2.3-3.6c-0.2-4.8,2.3-8,5.1-11.5c2.7-3.4,4.5-7.4,9.7-7.4
		c0.8,0,2-1.3,2.4-2.3c2.2-4.8,6.2-5.3,10.5-4.2c4.5,1.2,7.6,4.3,8.3,9c0.4,2.4-0.3,4.9-0.6,7.4c-0.2,1.9-1.1,5.1-0.5,5.4
		c2.2,1.1,5.1,2.2,7.4,1.7c5.2-1.2,10.7-1.3,14.9-5.8c2.4-2.5,5.3-0.8,6.3,3.3c2.4,9.5,4.7,19.1,6.9,28.6
		c3.2,14.3,6.2,28.6,9.4,42.9c1.8,8,1.7,8.3-5.6,11.8c-5.4,2.6-11,4.9-16.5,7.4C1152.4,641.4,1152.2,640.8,1152,640.1z"/>
	<linearGradient id="SVGID_7_" gradientUnits="userSpaceOnUse" x1="489.0247" y1="367.2241" x2="571.5323" y2="367.2241">
		<stop  offset="5.618000e-03" style="stop-color:#EEC44B"/>
		<stop  offset="0.2528" style="stop-color:#FFFBC9"/>
		<stop  offset="0.3146" style="stop-color:#F4ECB8"/>
		<stop  offset="0.4375" style="stop-color:#D7C48B"/>
		<stop  offset="0.5955" style="stop-color:#AD8A49"/>
		<stop  offset="0.8708" style="stop-color:#E4D085"/>
		<stop  offset="1" style="stop-color:#FFFBC9"/>
	</linearGradient>
	<path class="st6" d="M489,380.3c1.2-11.5,2.4-21.4,3.3-31.3c2-22.1,3.8-44.1,5.6-66.2c0.4-4.1,0.8-8.3,1-12.4
		c0.3-5.1,3.3-7.9,7.8-9.3c1-0.3,3,0.3,3.7,1.2c3.7,4.5,7.7,8.8,10.7,13.8c13.4,21.7,26.4,43.6,39.6,65.4c2.2,3.5,4.9,6.8,7,10.3
		c5.4,9.2,5.4,13-2.2,20.3c-4.9,4.7-5.5,9.3-4.8,15.6c2.5,21.7,4.5,43.4,6.6,65.1c0.7,7.5-0.5,9.1-7.8,11.3c-9.7,3-19.4,6-29.1,8.9
		c-6.8,2-13.1-2-14.1-8.9c-2.9-19.6-5.8-39.2-8.6-58.8c-0.6-4.1-1.9-7.3-6.3-8.6c-0.9-0.3-1.7-1-2.6-1.5
		C489.8,389.8,489.4,389,489,380.3z"/>
	<linearGradient id="SVGID_8_" gradientUnits="userSpaceOnUse" x1="563.504" y1="628.8737" x2="639.8574" y2="628.8737">
		<stop  offset="5.618000e-03" style="stop-color:#EEC44B"/>
		<stop  offset="0.2528" style="stop-color:#FFFBC9"/>
		<stop  offset="0.3146" style="stop-color:#F4ECB8"/>
		<stop  offset="0.4375" style="stop-color:#D7C48B"/>
		<stop  offset="0.5955" style="stop-color:#AD8A49"/>
		<stop  offset="0.8708" style="stop-color:#E4D085"/>
		<stop  offset="1" style="stop-color:#FFFBC9"/>
	</linearGradient>
	<path class="st7" d="M639.9,609.4c-1.6,10.5-2.5,19.3-4.4,27.9c-0.8,3.4-3.3,7.1-6.1,9.1c-6.7,4.7-13.6,9.5-21.2,12.2
		c-6.5,2.3-13.9,1.8-21,2.3c-4.5,0.3-9-0.2-11.4-5.1c-0.2-0.4-0.8-0.8-1.2-0.9c-8.4-0.3-9-6.8-10.6-12.8c-0.8-3-0.6-5.3,2.2-6.9
		c9.2-5.1,16.3-13.3,26.6-17.3c9.6-3.8,18.1-10.4,27.1-15.8c0.7-0.4,1.5-0.8,2.2-1.2c4.5-2.8,10.1-5.8,14.3-2.6
		C639.1,600.4,639,606.5,639.9,609.4z"/>
</g>
</svg>
