<?xml version="1.0" standalone="no"?>
<!DOCTYPE svg PUBLIC "-//W3C//DTD SVG 20010904//EN"
 "http://www.w3.org/TR/2001/REC-SVG-20010904/DTD/svg10.dtd">
<svg version="1.0" xmlns="http://www.w3.org/2000/svg"
 width="150.000000pt" height="150.000000pt" viewBox="0 0 150.000000 150.000000"
 preserveAspectRatio="xMidYMid meet">
<metadata>
Created by potrace 1.11, written by Peter Selinger 2001-2013
</metadata>
<g transform="translate(0.000000,150.000000) scale(0.100000,-0.100000)"
fill="#000000" stroke="none">
<path d="M590 1301 c-124 -40 -211 -91 -287 -166 -40 -40 -73 -77 -73 -83 0
-6 -8 -15 -18 -21 -9 -5 -16 -12 -15 -15 7 -17 -40 -97 -78 -131 -127 -118
-128 -159 -9 -277 26 -26 62 -75 79 -110 63 -131 218 -259 366 -303 86 -26 81
-25 180 -29 87 -2 120 2 220 29 39 11 141 62 185 93 67 48 148 143 181 213 20
43 47 80 72 101 22 18 54 52 72 76 27 35 32 49 30 84 -3 36 -12 49 -79 112
-51 48 -84 90 -104 131 -31 63 -145 188 -182 200 -11 3 -20 10 -20 15 0 7 -27
21 -50 25 -3 0 -23 10 -45 22 -72 38 -136 51 -255 52 -86 0 -129 -4 -170 -18z
m300 -15 c14 -4 36 -9 48 -12 40 -8 162 -73 214 -115 27 -21 54 -39 59 -39 5
0 9 -6 9 -13 0 -7 13 -28 29 -47 34 -42 65 -100 57 -108 -3 -3 -16 0 -29 6
-27 13 -101 37 -145 47 -42 9 -54 -16 -21 -45 32 -28 114 -70 135 -70 40 0
154 -110 154 -148 0 -14 -69 -81 -111 -108 -30 -19 -140 -58 -191 -68 -72 -14
-198 -27 -198 -20 0 3 13 18 29 33 27 26 52 65 71 116 14 37 4 30 -26 -17 -35
-56 -72 -96 -108 -115 l-29 -15 7 29 c14 61 18 250 7 303 -6 29 -8 57 -3 62
13 13 98 -65 116 -108 9 -23 23 -50 31 -60 12 -17 13 -13 4 26 -13 56 -26 77
-85 132 -58 53 -74 69 -96 96 -16 20 -25 21 -120 17 -57 -2 -116 -6 -133 -9
-16 -3 -52 -8 -80 -12 -27 -4 -54 -8 -60 -10 -62 -15 -100 -26 -153 -45 -34
-12 -65 -19 -68 -16 -14 14 104 180 139 196 5 1 20 14 34 27 39 36 150 87 238
109 50 13 228 13 275 1z m-290 -335 c0 -5 -8 -12 -17 -16 -23 -7 -72 -88 -79
-129 -6 -31 -6 -31 20 9 14 22 26 46 26 53 0 6 3 12 8 12 4 0 22 14 40 31 47
44 63 34 47 -28 -17 -62 -13 -276 5 -298 21 -25 2 -31 -33 -10 -41 24 -52 37
-85 105 -17 36 -28 49 -30 37 -7 -38 23 -86 111 -178 l92 -95 50 2 c58 2 183
12 228 19 18 2 51 6 73 9 23 3 90 21 148 40 115 37 122 35 87 -28 -48 -85
-144 -175 -238 -224 -120 -61 -167 -74 -273 -75 -99 -2 -175 12 -260 45 -87
34 -150 77 -215 144 -58 60 -114 149 -101 162 4 3 28 -2 54 -12 52 -20 158
-31 166 -17 6 10 -76 81 -93 81 -22 0 -134 60 -161 87 -19 19 -31 42 -34 68
-5 37 -2 43 42 85 28 27 65 51 92 59 25 8 50 18 55 22 15 10 103 27 185 36 30
3 57 7 59 9 9 8 31 4 31 -5z m217 -46 c28 -111 30 -140 13 -253 -17 -107 -20
-112 -83 -112 -53 0 -53 0 -71 42 -26 57 -26 239 -2 321 l18 58 56 -3 57 -3
12 -50z"/>
<path d="M697 803 c-29 -33 -31 -68 -6 -92 13 -11 25 -21 28 -22 3 0 15 -2 26
-4 31 -6 75 38 69 70 -11 59 -81 88 -117 48z"/>
</g>
</svg>
