<?xml version="1.0" encoding="utf-8"?>
<!-- Generator: Adobe Illustrator 23.0.3, SVG Export Plug-In . SVG Version: 6.00 Build 0)  -->
<svg version="1.1" id="Слой_1" xmlns="http://www.w3.org/2000/svg" xmlns:xlink="http://www.w3.org/1999/xlink" x="0px" y="0px"
	 viewBox="0 0 24 24" style="enable-background:new 0 0 24 24;" xml:space="preserve">
<style type="text/css">
	.st0{fill-rule:evenodd;clip-rule:evenodd;fill:#BBC5BA;}
</style>
<path class="st0" d="M18.8,5.1C17,3.3,14.6,2.3,12,2.3c-5.3,0-9.6,4.3-9.6,9.6c0,1.7,0.4,3.3,1.3,4.8l-1.4,5l5.1-1.3
	c1.4,0.8,3,1.2,4.6,1.2h0c5.3,0,9.6-4.3,9.6-9.6C21.7,9.4,20.7,6.9,18.8,5.1z M12,19.9L12,19.9c-1.4,0-2.8-0.4-4.1-1.1l-0.3-0.2
	l-3,0.8l0.8-2.9l-0.2-0.3c-0.8-1.3-1.2-2.7-1.2-4.3c0-4.4,3.6-8,8-8c2.1,0,4.1,0.8,5.6,2.3S20,9.8,20,11.9
	C20,16.3,16.4,19.9,12,19.9z M16.4,13.9c-0.2-0.1-1.4-0.7-1.6-0.8c-0.2-0.1-0.4-0.1-0.5,0.1c-0.2,0.2-0.6,0.8-0.8,0.9
	c-0.1,0.2-0.3,0.2-0.5,0.1c-0.2-0.1-1-0.4-1.9-1.2c-0.7-0.6-1.2-1.4-1.3-1.7c-0.1-0.2,0-0.4,0.1-0.5c0.3-0.3,0.5-0.7,0.6-0.8
	c0.1-0.2,0-0.3,0-0.4c-0.1-0.1-0.5-1.3-0.7-1.8C9.4,7.4,9.2,7.5,9.1,7.5c-0.1,0-0.3,0-0.5,0C8.5,7.5,8.2,7.5,8,7.8
	C7.8,8,7.2,8.6,7.2,9.8s0.9,2.3,1,2.5c0.1,0.2,1.7,2.6,4.1,3.6c0.6,0.2,1,0.4,1.4,0.5c0.6,0.2,1.1,0.2,1.5,0.1
	c0.5-0.1,1.4-0.6,1.6-1.1c0.2-0.6,0.2-1,0.1-1.1C16.8,14.1,16.7,14,16.4,13.9z"/>
</svg>
